<?xml version="1.0" encoding="utf-8"?>
<!-- Generator: Adobe Illustrator 25.2.1, SVG Export Plug-In . SVG Version: 6.00 Build 0)  -->
<svg version="1.1" id="Layer_1" xmlns="http://www.w3.org/2000/svg" xmlns:xlink="http://www.w3.org/1999/xlink" x="0px" y="0px"
	 viewBox="0 0 260 235" style="enable-background:new 0 0 260 235;" xml:space="preserve">
<style type="text/css">
	.st0{fill:#FFFFFF;}
</style>
<path class="st0" d="M238.4,141.3c-4.4-2.4-13.4-8.1-20.6-14.1c7.3-4.7,15.7-9.1,17.5-9.9c2.2-1,3.2-3.5,2.2-5.7
	c-1-2.2-3.5-3.2-5.7-2.2c-2.6,1.2-15,7.7-23.4,13.8h-15c-4.9,0-9.8-1-14.3-3c-12.6-5.5-20.1-18.6-18.6-32.2c0.5-5,2.2-9.8,4.7-14.2
	l5-8.3c12.2-1.6,24-6.1,34.1-13.1c1.9-1.3,2.7-3.9,1.5-5.9c-1.3-2.3-4.2-2.9-6.3-1.4c-5.2,3.6-13.2,8-23.4,10.5l7.4-12.4
	c1.2-2,0.8-4.6-1.1-5.9c-2.1-1.5-5-0.9-6.3,1.3l-18.7,31.5c-2.5,4.1-5.7,7.7-9.6,10.6c-11.1,8.1-26.1,8.1-37.2,0
	c-4-2.9-7.3-6.7-9.8-11l-9.3-16.5c1.6-10.1-0.5-28-2.5-34.8c-0.7-2.3-2.9-3.7-5.2-3.2c-2.5,0.6-3.9,3.1-3.2,5.5
	c1.7,5.7,3.3,19.7,2.6,28.3c-6.5-1.8-12.8-4.5-16.7-7.2c-1.9-1.3-4.4-1.1-5.9,0.6c-1.7,2-1.3,5,0.8,6.5c5.2,3.6,16.7,7.9,22.9,9.3
	l9,16c2.4,4.3,3.9,9,4.4,13.8l0,0c1.5,13.6-6,26.7-18.6,32.2c-4.5,2-9.4,3-14.3,3H54c-7.3-10.4-9.7-14-9.7-14c-1.3-2-4-2.6-6-1.2
	c-2,1.3-2.6,4-1.2,6c0.1,0.1,1.7,2.5,6.3,9.2H22.5c-2.3,0-4.3,1.7-4.5,3.9c-0.2,2.6,1.8,4.8,4.3,4.8h19.8
	c-4.7,4.9-10.8,10.6-16.2,14.4c-1.7,1.3-2.3,3.6-1.2,5.5l0.1,0.1c1.3,2.3,4.3,2.9,6.3,1.4c8.3-6,17.7-15.3,22.6-21.4h11
	c4.9,0,9.8,1,14.3,3c12.6,5.5,20.1,18.6,18.6,32.2l0,0c-0.5,4.9-2,9.6-4.4,13.9l-8.6,15.4c-14.1,2-27.2,10.3-27.8,10.6
	c-2,1.3-2.6,4-1.3,6c1.6,2.7,4.8,2,6,1.3c0.7-0.4,7.9-5,17.4-7.8l-1.7,3.1c-1.1,2.1-0.4,4.7,1.6,5.9l0,0c2.1,1.2,4.8,0.5,6-1.6
	l6.3-11.3l0,0l9.6-17.1c2.4-4.3,5.7-8.1,9.7-11c11.1-8.1,26.1-8.1,37.2,0c4.6,3.4,8.4,7.8,11,12.9l13.3,26.3c1.1,2.1,3.7,3,5.9,1.9
	s3-3.7,1.9-5.9l-7.7-15.3c6.2,1.4,14.8,4.1,21,9.1c2,1.6,4.8,0.8,6.1-0.7c1.6-1.8,1.2-4.6-0.7-6.1c-10.5-8.4-25.6-11.2-31.4-12.1
	l-3.3-6.6c-1.8-3.5-2.9-7.2-3.3-11c-1.5-13.6,6-26.7,18.6-32.2l0,0c4.5-2,9.4-3,14.3-3h16.5c8,7.3,19.1,14.2,24.3,17.1
	c2.1,1.2,4.8,0.2,5.9-1.7C241.3,145.1,240.5,142.4,238.4,141.3z M114.6,139.5c-8,0-14.5-5.4-14.5-12.1c0-6.7,6.5-12.1,14.5-12.1
	c8,0,14.5,5.4,14.5,12.1C129.1,134.1,122.6,139.5,114.6,139.5z"/>
</svg>
