<?xml version="1.0" encoding="utf-8"?>
<!-- Generator: Adobe Illustrator 26.3.1, SVG Export Plug-In . SVG Version: 6.00 Build 0)  -->
<svg version="1.1" id="designs" xmlns="http://www.w3.org/2000/svg" xmlns:xlink="http://www.w3.org/1999/xlink" x="0px" y="0px"
	 viewBox="0 0 32 32" style="enable-background:new 0 0 32 32;" xml:space="preserve">
<style type="text/css">
	.st0{fill:#FFFFFF;}
</style>
<path class="st0" d="M11.7,26.2H5.9l-0.7-1.5h7.2L11.7,26.2z M21.8,24.7h-1.5v1.5h1.5V24.7L21.8,24.7z M23.3,26.2h-1.5v1.5h1.5V26.2
	L23.3,26.2z M26.2,26.2h-1.5v1.5h0.7L26.2,26.2L26.2,26.2z M21.8,16h-1.5v1.5h1.5V16L21.8,16z M24.7,16h-1.5v1.5h1.5V16L24.7,16z
	 M23.3,17.5h-1.5V19h1.5V17.5L23.3,17.5z M26.2,17.5h-1.5V19h1.5V17.5L26.2,17.5z M21.8,18.9h-1.5v1.5h1.5V18.9L21.8,18.9z
	 M24.7,18.9h-1.5v1.5h1.5V18.9L24.7,18.9z M23.3,20.4h-1.5v1.5h1.5V20.4L23.3,20.4z M26.2,20.4h-1.5v1.5h1.5V20.4L26.2,20.4z
	 M21.8,21.8h-1.5v1.5h1.5V21.8L21.8,21.8z M24.7,21.8h-1.5v1.5h1.5V21.8L24.7,21.8z M23.3,23.3h-1.5v1.5h1.5V23.3L23.3,23.3z
	 M26.2,23.3h-1.5v1.5h1.5V23.3L26.2,23.3z M24.7,24.7h-1.5v1.5h1.5V24.7L24.7,24.7z"/>
<path class="st0" d="M17.5,7.4H19v17.3c0,2.4,1.9,4.4,4.4,4.4s4.4-1.9,4.4-4.4V7.4H29V3H17.5V7.4z M26.2,24.7c0,1.6-1.3,2.9-2.9,2.9
	c-1.6,0-2.9-1.3-2.9-2.9V7.4h5.8C26.2,7.4,26.2,24.7,26.2,24.7z M18.9,4.5h8.6V6h-8.6C18.9,6,18.9,4.5,18.9,4.5z M3,7.4h1.5v17.3
	c0,2.4,1.9,4.4,4.4,4.4s4.4-1.9,4.4-4.4V7.4h1.5V3H3V7.4z M11.7,24.7c0,1.6-1.3,2.9-2.9,2.9s-2.9-1.3-2.9-2.9V7.4h5.8
	C11.7,7.4,11.7,24.7,11.7,24.7z M4.5,4.5h8.6V6H4.5V4.5z"/>
</svg>
