<?xml version="1.0" encoding="utf-8"?>
<!-- Generator: Adobe Illustrator 25.2.1, SVG Export Plug-In . SVG Version: 6.00 Build 0)  -->
<svg version="1.1" id="Layer_1" xmlns="http://www.w3.org/2000/svg" xmlns:xlink="http://www.w3.org/1999/xlink" x="0px" y="0px"
	 viewBox="0 0 512 512" style="enable-background:new 0 0 512 512;" xml:space="preserve">
<style type="text/css">
	.st0{fill:#FFFFFF;stroke:#000000;stroke-miterlimit:10;}
</style>
<g>
	<g>
		<path class="st0" d="M429.6,305.8l-44.9-23.6l44.9-23.6c10.5-5.5,10.5-20.1,0-25.6l-44.9-23.6l44.9-23.6
			c10.5-5.5,10.5-20.1,0-25.6L263.2,72.6c-4.5-2.4-10-2.4-14.5,0L82.4,160.1c-10.5,5.5-10.5,20.1,0,25.6l44.9,23.6L82.4,233
			c-10.5,5.5-10.5,20.1,0,25.6l44.9,23.6l-44.9,23.6c-10.5,5.5-10.5,20.1,0,25.6L248.8,419c4.5,2.4,10,2.4,14.5,0l166.4-87.5
			C440.1,325.9,440.1,311.4,429.6,305.8z M256,102l134.8,70.9L256,243.7l-134.8-70.9L256,102z M158.9,225.9l89.8,47.2
			c0.3,0.1,0.6,0.3,0.8,0.4c0,0,0,0,0.1,0c0.1,0.1,0.3,0.1,0.4,0.1c0.2,0.1,0.4,0.2,0.6,0.3c0.5,0.2,1,0.3,1.5,0.5
			c0.1,0,0.1,0,0.1,0.1c0.9,0.2,1.8,0.3,2.7,0.4c0.7,0.1,1.3,0.1,2.1,0c0.9-0.1,1.8-0.2,2.7-0.4c0.1,0,0.1,0,0.1-0.1
			c0.5-0.1,1-0.3,1.5-0.5c0.2-0.1,0.4-0.1,0.6-0.3c0.1-0.1,0.3-0.1,0.4-0.1c0,0,0,0,0.1,0c0.3-0.1,0.6-0.3,0.8-0.4l89.9-47.2
			l37.7,19.8L256,316.6l-134.8-70.9L158.9,225.9z M256,389.5l-134.8-70.9l37.7-19.8l89.8,47.2c0.3,0.1,0.6,0.3,0.8,0.4
			c0,0,0,0,0.1,0c0.1,0.1,0.3,0.1,0.4,0.1c0.2,0.1,0.4,0.2,0.6,0.3c0.5,0.2,1,0.3,1.5,0.5c0.1,0,0.1,0,0.1,0.1c0.1,0,0.1,0,0.1,0
			c2.3,0.5,4.8,0.5,7.2,0c0.1,0,0.1,0,0.1,0c0.1,0,0.1,0,0.1-0.1c0.5-0.1,1-0.3,1.5-0.5c0.2-0.1,0.4-0.1,0.6-0.3
			c0.1-0.1,0.3-0.1,0.4-0.1c0,0,0,0,0.1,0c0.3-0.1,0.6-0.3,0.8-0.4l89.8-47.2l37.7,19.8L256,389.5z"/>
	</g>
</g>
</svg>
