<?xml version="1.0" encoding="utf-8"?>
<!-- Generator: Adobe Illustrator 26.3.1, SVG Export Plug-In . SVG Version: 6.00 Build 0)  -->
<svg version="1.1" id="Capa_1" xmlns="http://www.w3.org/2000/svg" xmlns:xlink="http://www.w3.org/1999/xlink" x="0px" y="0px"
	 viewBox="0 0 283.8 283.8" style="enable-background:new 0 0 283.8 283.8;" xml:space="preserve">
<style type="text/css">
	.st0{fill:#FFFFFF;}
</style>
<g>
	<path class="st0" d="M261.9,142.4l-0.6-9.2c-1.3-21.5-19.8-37.8-41.2-36.6l-29.8,1.8c-6.7,0.4-11.9,6.2-11.5,12.9l0.1,2.5
		c0.4,6.7,6.2,11.9,12.9,11.5l29.8-1.8c6.6-0.4,12.4,4.7,12.8,11.3l0.6,9.2c0.4,6.6-4.7,12.4-11.3,12.8l-65.1,3.9
		c-5.5,0.3-10.5-3.1-12.2-8.4c-1.8-5.8-7.3-9.5-13.4-9.2l-0.5,0c-4.1,0.2-7.8,2.3-10.1,5.7c-2.3,3.4-2.9,7.5-1.7,11.4
		c1.9,6.2,5.3,11.6,9.6,15.9c7.7,7.7,18.5,12,29.9,11.3l65.1-3.9C246.7,182.4,263.1,163.9,261.9,142.4z"/>
	<path class="st0" d="M105.1,169.5l-0.1-2.5c-0.4-6.7-6.2-11.9-12.9-11.5l-29.7,1.8c-6.6,0.4-12.4-4.7-12.8-11.3l-0.6-9.2
		c-0.4-6.6,4.7-12.4,11.3-12.8l65.1-3.9c5.4-0.3,10.4,3,12.1,8.2c2,5.9,7.8,9.7,14,9.4l0.2,0c4-0.2,7.6-2.3,9.9-5.6
		c2.3-3.3,2.9-7.4,1.8-11.2c-5.2-17.3-21.5-28.7-39.6-27.6l-65.1,3.9l0,0c-21.4,1.3-37.8,19.8-36.6,41.2l0.6,9.2
		c0.6,9.9,4.8,18.7,11.3,25.2c7.6,7.6,18.3,12.1,29.9,11.4l29.8-1.8C100.4,182,105.5,176.2,105.1,169.5z"/>
</g>
</svg>
