<?xml version="1.0" encoding="utf-8"?>
<!-- Generator: Adobe Illustrator 26.1.0, SVG Export Plug-In . SVG Version: 6.00 Build 0)  -->
<svg version="1.1" id="Layer_1" xmlns="http://www.w3.org/2000/svg" xmlns:xlink="http://www.w3.org/1999/xlink" x="0px" y="0px"
	 viewBox="0 0 48 48" style="enable-background:new 0 0 48 48;" xml:space="preserve">
<style type="text/css">
	.st0{fill:none;stroke:#FFFFFF;stroke-width:4;stroke-linecap:round;stroke-linejoin:round;}
</style>
<path class="st0" d="M14.5,27l4.3,4.2l-4.2,4.3"/>
<path class="st0" d="M32.8,33.1c7.6-1.6,12.8-5.4,12.8-9.8c0-5.6-11.5-10.7-21.3-10.6c-10,0-21.5,5.4-21.3,10.6
	c0.2,4.4,8.3,7.5,12.1,8.7"/>
<path class="st0" d="M34.5,35.3L30.2,31l4.3-4.2"/>
<path class="st0" d="M32.9,31.9c3.8-1.3,11.9-4.4,12.1-8.7c0.2-5.3-11.3-10.6-21.3-10.6c-9.7,0-21.3,5.1-21.3,10.6
	c0,4.4,5.2,8.2,12.8,9.8"/>
</svg>
