<?xml version="1.0" encoding="utf-8"?>
<!-- Generator: Adobe Illustrator 26.1.0, SVG Export Plug-In . SVG Version: 6.00 Build 0)  -->
<svg version="1.1" id="Layer_1" xmlns="http://www.w3.org/2000/svg" xmlns:xlink="http://www.w3.org/1999/xlink" x="0px" y="0px"
	 viewBox="0 0 48 48" style="enable-background:new 0 0 48 48;" xml:space="preserve">
<style type="text/css">
	.st0{fill:none;stroke:#FFFFFF;stroke-width:4;stroke-linecap:round;stroke-linejoin:round;}
</style>
<path class="st0" d="M27,33.6l4.2-4.3l4.3,4.2"/>
<path class="st0" d="M33.1,15.3c-1.6-7.6-5.4-12.8-9.8-12.8c-5.6,0-10.7,11.5-10.6,21.3c0,10,5.4,21.5,10.6,21.3
	c4.4-0.2,7.5-8.3,8.7-12.1"/>
<path class="st0" d="M35.3,13.6L31,17.9l-4.2-4.3"/>
<path class="st0" d="M31.9,15.2c-1.3-3.8-4.4-11.9-8.7-12.1c-5.3-0.2-10.6,11.3-10.6,21.3c0,9.7,5.1,21.3,10.6,21.3
	c4.4,0,8.2-5.2,9.8-12.8"/>
</svg>
