<?xml version="1.0" encoding="utf-8"?>
<!-- Generator: Adobe Illustrator 26.1.0, SVG Export Plug-In . SVG Version: 6.00 Build 0)  -->
<svg version="1.1" id="Layer_1" xmlns="http://www.w3.org/2000/svg" xmlns:xlink="http://www.w3.org/1999/xlink" x="0px" y="0px"
	 viewBox="0 0 461.5 461.5" style="enable-background:new 0 0 461.5 461.5;" xml:space="preserve">
<style type="text/css">
	.st0{fill:#FFFFFF;}
</style>
<g>
	<path class="st0" d="M0,230.7c0,4.9,2.4,9.5,6.4,12.3l239.3,167.8c4.5,3.2,10.5,3.6,15.5,1c5-2.6,8.1-7.7,8.1-13.3V292.6
		l168.6,118.2c4.5,3.2,10.5,3.6,15.5,1c5-2.6,8.1-7.7,8.1-13.3V62.9c0-5.6-3.1-10.7-8.1-13.3c-4.9-2.6-10.9-2.2-15.5,1L269.3,168.8
		V62.9c0-5.6-3.1-10.7-8.1-13.3c-4.9-2.6-10.9-2.2-15.5,1L6.4,218.4C2.4,221.3,0,225.8,0,230.7z M269.3,205.5L431.5,91.8v277.9
		L269.3,256L269.3,205.5z M41.1,230.8l198.2-139v277.9L41.1,230.8z"/>
</g>
</svg>
