<?xml version="1.0" encoding="utf-8"?>
<!-- Generator: Adobe Illustrator 25.2.1, SVG Export Plug-In . SVG Version: 6.00 Build 0)  -->
<svg version="1.1" id="Capa_1" xmlns="http://www.w3.org/2000/svg" xmlns:xlink="http://www.w3.org/1999/xlink" x="0px" y="0px"
	 viewBox="0 0 60 60" style="enable-background:new 0 0 60 60;" xml:space="preserve">
<style type="text/css">
	.st0{fill:none;stroke:#FFFFFF;stroke-width:4;stroke-miterlimit:10;}
</style>
<g>
	<path class="st0" d="M28.6,29h-3.7c0.6-0.8,0.9-1.9,0.9-2.9c0-2.8-2.3-5.1-5.1-5.1s-5.1,2.3-5.1,5.1c0,1.1,0.3,2.1,0.9,2.9h-4.4
		C10.4,29,9,30.4,9,32.1v6.2c0,0.3,0.2,0.6,0.5,0.7c0.3,0.1,0.6,0,0.8-0.3c0.7-1,1.8-1.6,3.1-1.6c2,0,3.7,1.6,3.7,3.7
		s-1.6,3.7-3.7,3.7c-1.2,0-2.4-0.6-3.1-1.6c-0.2-0.3-0.5-0.4-0.8-0.3C9.2,42.5,9,42.8,9,43.1v5.5c0,1.7,1.4,3.1,3.1,3.1h16.5
		c1.7,0,3.1-1.4,3.1-3.1V44c0-0.3-0.2-0.6-0.4-0.7c-0.3-0.1-0.6-0.1-0.8,0.1c-0.7,0.6-1.5,0.9-2.4,0.9c-2,0-3.7-1.6-3.7-3.7
		S26,37,28.1,37c0.9,0,1.8,0.3,2.4,0.9c0.2,0.2,0.5,0.2,0.8,0.1c0.3-0.1,0.4-0.4,0.4-0.7v-5.4C31.7,30.4,30.3,29,28.6,29z"/>
	<path class="st0" d="M52.7,13.9c-0.3-0.6-0.9-1.1-1.6-1.3L37.9,8.7c-0.2-0.1-0.5-0.1-0.8-0.1c-1.2,0-2.3,0.8-2.6,1.9l-0.8,2.7
		c-0.5-0.6-1.2-1.1-2-1.3c-0.4-0.1-0.8-0.2-1.2-0.2c-1.9,0-3.7,1.3-4.2,3.2c-0.3,1.1-0.2,2.3,0.4,3.3c0.6,1,1.5,1.8,2.6,2.1
		c0.4,0.1,0.8,0.2,1.2,0.2c0.4,0,0.8-0.1,1.2-0.2l-1,3.3c-0.2,0.7-0.1,1.4,0.2,2.1c0.3,0.6,0.9,1.1,1.6,1.3l2.7,0.8
		c-0.6,0.5-1.1,1.2-1.3,2c-0.7,2.3,0.7,4.8,3,5.5c0.4,0.1,0.8,0.2,1.2,0.2c1.9,0,3.7-1.3,4.2-3.2c0.2-0.8,0.2-1.6,0-2.4l3.3,1
		c0.2,0.1,0.5,0.1,0.8,0.1c1.2,0,2.3-0.8,2.6-1.9l1.5-4.9c0.1-0.3,0-0.6-0.3-0.8c-0.3-0.2-0.6-0.2-0.9,0.1c-0.7,0.6-1.8,0.8-2.7,0.6
		c-1.5-0.5-2.4-2.1-2-3.6c0.4-1.2,1.5-2.1,2.8-2.1c0.3,0,0.6,0,0.8,0.1c0.9,0.3,1.7,1,2,1.9c0.1,0.3,0.4,0.5,0.7,0.5c0,0,0,0,0,0
		c0.3,0,0.6-0.2,0.7-0.5l1.3-4.4C53.1,15.3,53,14.5,52.7,13.9z"/>
</g>
</svg>
