<?xml version="1.0" encoding="utf-8"?>
<!-- Generator: Adobe Illustrator 26.1.0, SVG Export Plug-In . SVG Version: 6.00 Build 0)  -->
<svg version="1.1" id="Layer_1" xmlns="http://www.w3.org/2000/svg" xmlns:xlink="http://www.w3.org/1999/xlink" x="0px" y="0px"
	 viewBox="0 0 496.2 496.2" style="enable-background:new 0 0 496.2 496.2;" xml:space="preserve">
<style type="text/css">
	.st0{fill:#FFFFFF;}
</style>
<path class="st0" d="M156.6,154.9c-4.9,0-9.8-1.9-13.5-5.6c-7.5-7.5-7.5-19.6,0-27.1c28.1-28.1,65.4-43.6,105.1-43.6
	c39.7,0,77,15.5,105.1,43.5c7.5,7.5,7.5,19.6,0,27.1s-19.6,7.5-27.1,0c-20.8-20.8-48.5-32.3-77.9-32.3c-29.5,0-57.1,11.5-78,32.3
	C166.4,153.1,161.5,154.9,156.6,154.9z"/>
<path class="st0" d="M248.1,114.8c-10.6,0-19.2-8.6-19.2-19.2V19.2C229,8.6,237.6,0,248.1,0s19.2,8.6,19.2,19.2v76.4
	C267.3,106.2,258.7,114.8,248.1,114.8z"/>
<path class="st0" d="M206.1,207.6c23.1-23.2,60.8-23.2,84,0"/>
<path class="st0" d="M290.1,226.8c-4.9,0-9.8-1.9-13.6-5.6c-7.6-7.6-17.7-11.8-28.5-11.8l0,0c-10.7,0-20.8,4.2-28.4,11.8
	c-7.5,7.5-19.6,7.5-27.1,0c-7.5-7.5-7.5-19.6,0-27.1c14.8-14.9,34.5-23,55.5-23h0c21,0,40.7,8.2,55.6,23c7.5,7.5,7.5,19.6,0,27.1
	C299.9,224.9,295,226.8,290.1,226.8z"/>
<path class="st0" d="M248.1,417.6c-39.7,0-77-15.5-105.1-43.5c-7.5-7.5-7.5-19.6,0-27.1s19.6-7.5,27.1,0
	c20.8,20.8,48.5,32.3,77.9,32.3c29.5,0,57.1-11.5,78-32.3c7.5-7.5,19.6-7.5,27.1,0c7.5,7.5,7.5,19.6,0,27.1
	C325.1,402.1,287.8,417.6,248.1,417.6z"/>
<path class="st0" d="M248.1,496.2c-10.6,0-19.2-8.6-19.2-19.2v-76.4c0-10.6,8.6-19.2,19.2-19.2s19.2,8.6,19.2,19.2v76.4
	C267.3,487.7,258.7,496.2,248.1,496.2z"/>
<path class="st0" d="M290.1,288.6c-23.2,23.2-60.8,23.2-84,0"/>
<path class="st0" d="M248.1,325.2c-21,0-40.7-8.2-55.6-23c-7.5-7.5-7.5-19.6,0-27.1c7.5-7.5,19.6-7.5,27.1,0
	c7.6,7.6,17.7,11.8,28.5,11.8h0c10.7,0,20.8-4.2,28.4-11.8c7.5-7.5,19.6-7.5,27.1,0c7.5,7.5,7.5,19.6,0,27.1
	C288.9,317.1,269.1,325.2,248.1,325.2L248.1,325.2z"/>
<path class="st0" d="M360.5,358.8c-4.9,0-9.8-1.9-13.6-5.6c-7.5-7.5-7.5-19.6,0-27.1c20.8-20.8,32.3-48.5,32.3-77.9
	s-11.5-57.1-32.3-78c-7.5-7.5-7.5-19.6,0-27.1c7.5-7.5,19.6-7.5,27.1,0c28.1,28.1,43.6,65.4,43.6,105.1c0,39.7-15.4,77-43.5,105.1
	C370.3,356.9,365.4,358.8,360.5,358.8z"/>
<path class="st0" d="M477.1,267.3h-76.4c-10.6,0-19.2-8.6-19.2-19.2s8.6-19.2,19.2-19.2h76.4c10.6,0,19.2,8.6,19.2,19.2
	C496.2,258.7,487.7,267.3,477.1,267.3z"/>
<path class="st0" d="M288.6,206.1c23.2,23.1,23.2,60.8,0,84"/>
<path class="st0" d="M288.6,309.3c-4.9,0-9.8-1.9-13.6-5.6c-7.5-7.5-7.5-19.6,0-27.1c7.6-7.6,11.8-17.7,11.8-28.5
	s-4.2-20.8-11.8-28.4c-7.5-7.5-7.5-19.6,0-27.1c7.5-7.5,19.6-7.5,27.1,0c14.9,14.8,23,34.5,23,55.5c0,21-8.2,40.7-23,55.6
	C298.5,307.4,293.6,309.3,288.6,309.3z"/>
<path class="st0" d="M135.8,358.8c-4.9,0-9.8-1.9-13.6-5.6c-28.1-28.1-43.6-65.4-43.6-105.1c0-39.7,15.5-77,43.5-105.1
	c7.5-7.5,19.6-7.5,27.1,0c7.5,7.5,7.5,19.6,0,27.1C128.4,191,117,218.6,117,248.1c0,29.5,11.5,57.2,32.3,78c7.5,7.5,7.5,19.6,0,27.1
	C145.6,356.9,140.7,358.8,135.8,358.8z"/>
<path class="st0" d="M95.6,267.3H19.2C8.6,267.3,0,258.7,0,248.1s8.6-19.2,19.2-19.2h76.4c10.6,0,19.2,8.6,19.2,19.2
	S106.2,267.3,95.6,267.3z"/>
<path class="st0" d="M207.6,290.1c-23.2-23.1-23.2-60.8,0-84"/>
<path class="st0" d="M207.6,309.3c-4.9,0-9.8-1.9-13.6-5.6c-14.8-14.8-23-34.6-23-55.6c0-21,8.2-40.7,23-55.6
	c7.5-7.5,19.6-7.5,27.1,0c7.5,7.5,7.5,19.6,0,27.1c-7.6,7.6-11.8,17.7-11.8,28.5c0,10.7,4.2,20.8,11.8,28.4c7.5,7.5,7.5,19.6,0,27.1
	C217.4,307.4,212.5,309.3,207.6,309.3z"/>
</svg>
