<?xml version="1.0" encoding="utf-8"?>
<!-- Generator: Adobe Illustrator 26.2.1, SVG Export Plug-In . SVG Version: 6.00 Build 0)  -->
<svg version="1.1" id="Layer_1" xmlns="http://www.w3.org/2000/svg" xmlns:xlink="http://www.w3.org/1999/xlink" x="0px" y="0px"
	 viewBox="0 0 24 24" style="enable-background:new 0 0 24 24;" xml:space="preserve">
<style type="text/css">
	.st0{fill:#FFFFFF;}
	.st1{fill:none;stroke:#FFFFFF;stroke-width:2;stroke-miterlimit:10;}
</style>
<path class="st0" d="M6.4,8.3c-0.7,0-1.4-0.2-2-0.6c-0.6-0.4-1-0.9-1.3-1.6C2.9,5.5,2.9,4.8,3,4.1s0.5-1.3,1-1.8s1.1-0.8,1.8-1
	c0.7-0.1,1.4-0.1,2,0.2C8.5,1.8,9,2.2,9.4,2.8s0.6,1.3,0.6,2c0,0.5-0.1,0.9-0.3,1.4C9.5,6.6,9.3,7,9,7.3C8.6,7.6,8.2,7.9,7.8,8
	C7.4,8.2,6.9,8.3,6.4,8.3z M6.4,2.8C6,2.8,5.7,2.9,5.3,3.1C5,3.3,4.7,3.6,4.6,4C4.4,4.4,4.4,4.8,4.5,5.1c0.1,0.4,0.3,0.7,0.5,1
	c0.3,0.3,0.6,0.5,1,0.5c0.4,0.1,0.8,0,1.2-0.1c0.4-0.2,0.7-0.4,0.9-0.7c0.2-0.3,0.3-0.7,0.3-1.1c0-0.3-0.1-0.5-0.2-0.8
	c0-0.2-0.2-0.4-0.3-0.6C7.7,3.2,7.4,3,7.2,2.9C7,2.8,6.7,2.8,6.4,2.8z"/>
<path class="st1" d="M9.2,3.6c1.3-0.6,4-1.6,7.3-1.1c1.4,0.2,2.9,0.4,4.2,1.6c3,2.8,1.2,8.7,1,9.2c-0.1,0.4-2.9,8.7-9.9,8.7
	c-3.4,0-7.1-2-8.7-5.7c-2.1-4.9,1-9.2,1.1-9.4"/>
</svg>
