<?xml version="1.0" encoding="utf-8"?>
<!-- Generator: Adobe Illustrator 26.1.0, SVG Export Plug-In . SVG Version: 6.00 Build 0)  -->
<svg version="1.1" id="Capa_1" xmlns="http://www.w3.org/2000/svg" xmlns:xlink="http://www.w3.org/1999/xlink" x="0px" y="0px"
	 viewBox="0 0 612 612" style="enable-background:new 0 0 612 612;" xml:space="preserve">
<style type="text/css">
	.st0{fill:#FFFFFF;}
</style>
<g>
	<g>
		<path class="st0" d="M609.6,315.4c3.2-5.9,3.2-13,0-18.9C551.1,188.9,437.1,115.9,306,115.9S60.9,188.9,2.4,296.6
			c-3.2,5.9-3.2,13,0,18.9C60.9,423.1,174.9,496.1,306,496.1S551.1,423.1,609.6,315.4z M306,451.9c-80.6,0-145.9-65.3-145.9-145.9
			S225.4,160.1,306,160.1S451.9,225.4,451.9,306S386.6,451.9,306,451.9z"/>
		<path class="st0" d="M306,231.7c-6.1,0-12.1,0.7-17.8,2.1c5.8,6.8,9.4,15.6,9.4,25.2c0,21.3-17.3,38.6-38.6,38.6
			c-9.6,0-18.4-3.5-25.2-9.4c-1.4,5.7-2.1,11.7-2.1,17.8c0,41.1,33.3,74.3,74.3,74.3s74.3-33.3,74.3-74.3S347.1,231.7,306,231.7z"/>
	</g>
</g>
</svg>
