<?xml version="1.0" encoding="utf-8"?>
<!-- Generator: Adobe Illustrator 26.1.0, SVG Export Plug-In . SVG Version: 6.00 Build 0)  -->
<svg version="1.1" id="Capa_1" xmlns="http://www.w3.org/2000/svg" xmlns:xlink="http://www.w3.org/1999/xlink" x="0px" y="0px"
	 viewBox="0 0 612 612" style="enable-background:new 0 0 612 612;" xml:space="preserve">
<style type="text/css">
	.st0{fill:#FFFFFF;}
</style>
<g>
	<path class="st0" d="M609.6,315.4c2.3-4.3,3-9.2,1.9-13.8c-0.5-2.3-1.5-4.6-1.9-5.1c-4.9-5.4-74.1,59.3-139.6,93.5
		c-12.3,6.4-76.1,38.7-162.9,38.8c-83.1,0-144.7-29.5-159.1-36.8C78.9,357.3,7.3,291.1,2.4,296.6c-0.4,0.5-1.4,2.8-1.9,5.1
		c-1,4.6-0.4,9.5,1.9,13.8C31.1,368.5,68,401,68,401c25.5,22.3,67.1,58,133.9,79.1c20.4,6.4,57.2,16,104.2,16
		C437.1,496.1,551.1,423.1,609.6,315.4z"/>
	<path class="st0" d="M597.7,481.7c9.1,15.7,3.7,35.7-12,44.8c-15.7,9.1-35.7,3.7-44.8-12c0,0,0,0,0,0l-44.5-77
		c-25.1,15.6-52,28-80.3,36.8l14.2,80.4c3.1,17.8-8.8,34.8-26.6,38s-34.8-8.8-38-26.6L352,487.7c-29.9,3.5-60.1,3.5-90,0L248.2,566
		c-3.1,17.8-20.2,29.7-38,26.6c-17.8-3.1-29.7-20.2-26.6-38l14.2-80.5c-28.2-8.8-55.1-21.2-80.1-36.8l-44.8,77.5
		c-9.1,15.7-29.1,21-44.8,12c-15.7-9.1-21-29.1-12-44.8l48.8-84.5c-0.7-0.6-1.5-1.5-1.3-2.2c2.7-6.6,118.6,65.3,242.4,65.6
		c124.8,0.3,241.8-72.2,244.5-65.5c0.2,0.6-0.6,1.5-1.3,2.2L597.7,481.7z"/>
</g>
</svg>
