<?xml version="1.0" encoding="utf-8"?>
<!-- Generator: Adobe Illustrator 25.2.1, SVG Export Plug-In . SVG Version: 6.00 Build 0)  -->
<svg version="1.1" id="icon" xmlns="http://www.w3.org/2000/svg" xmlns:xlink="http://www.w3.org/1999/xlink" x="0px" y="0px"
	 viewBox="0 0 32 32" style="enable-background:new 0 0 32 32;" xml:space="preserve">
<style type="text/css">
	.st0{fill:#FFFFFF;stroke:#FFFFFF;stroke-miterlimit:10;}
	.st1{fill:none;}
</style>
<path class="st0" d="M28.7,3.9c-0.3-0.2-0.7-0.3-1-0.1l-9.6,5.1L4.9,3.7c-0.5-0.2-1,0-1.2,0.5c-0.1,0.2-0.1,0.5,0,0.7l5.8,12.9
	c-1.6,1.2-1.8,3.4-0.6,5c0.5,0.6,1.1,1,1.9,1.2c-0.4,1.6-1.8,2.8-3.5,2.8H5.5v1.8h1.8c2.7,0,5-1.9,5.4-4.6c1.3-0.3,2.3-1.3,2.7-2.6
	h7.6c0.8,0,1.5-0.5,1.7-1.3L29,4.8C29.1,4.5,29,4.1,28.7,3.9z M11.8,22.4c-1,0-1.8-0.8-1.8-1.8s0.8-1.8,1.8-1.8s1.8,0.8,1.8,1.8
	C13.6,21.6,12.8,22.4,11.8,22.4z M22.9,19.7h-7.6c-0.4-1.8-2.2-3-4.1-2.6L6.3,6.2l11.9,4.6l8.5-4.5L22.9,19.7z"/>
<rect id="_Transparent_Rectangle_" class="st1" width="32" height="32"/>
</svg>
