<?xml version="1.0" encoding="utf-8"?>
<!-- Generator: Adobe Illustrator 25.2.1, SVG Export Plug-In . SVG Version: 6.00 Build 0)  -->
<svg version="1.1" id="Layer_1" xmlns="http://www.w3.org/2000/svg" xmlns:xlink="http://www.w3.org/1999/xlink" x="0px" y="0px"
	 viewBox="0 0 15 15" style="enable-background:new 0 0 15 15;" xml:space="preserve">
<style type="text/css">
	.st0{fill:#FFFFFF;}
</style>
<path class="st0" d="M11.4,13.1c1,0,1.8-0.8,1.8-1.9c0-0.9-0.6-1.7-1.5-1.8V5.6c0.8-0.2,1.5-0.9,1.5-1.8c0-1-0.8-1.9-1.8-1.9
	S9.5,2.7,9.5,3.7c0,0.9,0.6,1.7,1.5,1.8v3.8c-0.7,0.1-1.3,0.7-1.4,1.5H6.2c-1,0-1.8-0.8-1.8-1.9V7.8C5.2,7.7,5.9,6.9,5.9,6
	C5.9,5,5,4.1,4,4.1S2.2,5,2.2,6c0,0.9,0.6,1.7,1.5,1.8V9c0,1.5,1.1,2.6,2.6,2.6h3.3C9.7,12.5,10.5,13.1,11.4,13.1z"/>
</svg>
