<?xml version="1.0" encoding="utf-8"?>
<!-- Generator: Adobe Illustrator 26.1.0, SVG Export Plug-In . SVG Version: 6.00 Build 0)  -->
<svg version="1.1" id="Capa_1" xmlns="http://www.w3.org/2000/svg" xmlns:xlink="http://www.w3.org/1999/xlink" x="0px" y="0px"
	 viewBox="0 0 490 490" style="enable-background:new 0 0 490 490;" xml:space="preserve">
<style type="text/css">
	.st0{fill:#FFFFFF;stroke:#FFFFFF;stroke-width:18;stroke-miterlimit:10;}
</style>
<line class="st0" x1="146.8" y1="355.3" x2="60.3" y2="468.7"/>
<line class="st0" x1="207" y1="391.4" x2="91.1" y2="304.9"/>
<rect x="134.1" y="284.9" transform="matrix(0.7782 0.628 -0.628 0.7782 223.0797 -27.9245)" class="st0" width="34" height="34"/>
<rect x="205" y="277.5" transform="matrix(0.7782 0.628 -0.628 0.7782 234.1814 -74.1138)" class="st0" width="34" height="34"/>
<rect x="197.4" y="206.9" transform="matrix(0.7782 0.628 -0.628 0.7782 188.1783 -84.9713)" class="st0" width="34" height="34"/>
<rect x="269.2" y="198" transform="matrix(0.7782 0.628 -0.628 0.7782 198.4832 -132.0377)" class="st0" width="34" height="34"/>
<rect x="263.4" y="125.1" transform="matrix(0.7782 0.628 -0.628 0.7782 151.4489 -144.5684)" class="st0" width="34" height="34"/>
<rect x="334.3" y="116.7" transform="matrix(0.7782 0.628 -0.628 0.7782 161.8739 -190.9825)" class="st0" width="34" height="34"/>
<rect x="327.4" y="45.7" transform="matrix(0.7782 0.628 -0.628 0.7782 115.7412 -202.3515)" class="st0" width="34" height="34"/>
<line class="st0" x1="87.8" y1="313.5" x2="317.4" y2="25.3"/>
<line class="st0" x1="199.6" y1="396" x2="434.6" y2="94"/>
</svg>
