<?xml version="1.0" encoding="utf-8"?>
<!-- Generator: Adobe Illustrator 26.1.0, SVG Export Plug-In . SVG Version: 6.00 Build 0)  -->
<svg version="1.1" id="Layer_1" xmlns="http://www.w3.org/2000/svg" xmlns:xlink="http://www.w3.org/1999/xlink" x="0px" y="0px"
	 viewBox="0 0 512 512" style="enable-background:new 0 0 512 512;" xml:space="preserve">
<style type="text/css">
	.st0{fill:#FFFFFF;}
</style>
<g>
	<g>
		
			<ellipse transform="matrix(7.088901e-02 -0.9975 0.9975 7.088901e-02 -290.6223 484.4348)" class="st0" cx="114.7" cy="398.2" rx="42.7" ry="42.7"/>
	</g>
</g>
<g>
	<g>
		<circle class="st0" cx="399.2" cy="113.8" r="42.7"/>
	</g>
</g>
<g>
	<g>
		<path class="st0" d="M475.4,234.7c-2.1-21.5-7.3-42.2-15.1-61.4c-10.1,10.4-22.8,18.2-37.1,22.4c4.5,12.4,7.6,25.5,9.3,39h-43.1
			c-9.2-57.4-54.6-102.9-112.1-112.1V79.5c13.9,1.7,27.4,5,40.1,9.7c4.3-14.2,12.2-26.9,22.7-36.9c-19.7-8.2-40.8-13.5-62.8-15.7V0
			h-42.7v36.6c-104.6,10.1-188,93.5-198.1,198.1H0v42.7h36.6c2.1,22,7.5,43.1,15.7,62.8c9.9-10.7,22.5-18.8,36.7-23.3
			c-4.6-12.6-7.8-25.8-9.5-39.5h43.1c9.2,57.4,54.6,102.9,112.1,112.1v43.1c-13.3-1.6-26.2-4.7-38.4-9.1
			c-4.4,14.2-12.5,26.9-23.1,36.9c19.3,7.8,39.9,13,61.5,15.1V512h42.7v-36.6c104.6-10.1,188-93.5,198.1-198.1H512v-42.7
			L475.4,234.7L475.4,234.7z M234.7,345.9c-33.9-8-60.6-34.7-68.6-68.6h68.6V345.9z M234.7,234.7h-68.6c8-33.9,34.7-60.6,68.6-68.6
			V234.7z M234.7,122.6c-57.4,9.2-102.9,54.6-112.1,112.1H79.5c9.7-81,74.2-145.4,155.2-155.2L234.7,122.6L234.7,122.6z
			 M277.3,166.1c33.9,8,60.6,34.7,68.6,68.6h-68.6V166.1z M277.3,277.3h68.6c-8,33.9-34.7,60.6-68.6,68.6V277.3z M277.3,432.5v-43.1
			c57.4-9.2,102.9-54.6,112.1-112.1h43.1C422.8,358.3,358.3,422.8,277.3,432.5z"/>
	</g>
</g>
</svg>
