<?xml version="1.0" encoding="utf-8"?>
<!-- Generator: Adobe Illustrator 26.0.3, SVG Export Plug-In . SVG Version: 6.00 Build 0)  -->
<svg version="1.1" id="Layer_1" xmlns="http://www.w3.org/2000/svg" xmlns:xlink="http://www.w3.org/1999/xlink" x="0px" y="0px"
	 viewBox="0 0 512 512" style="enable-background:new 0 0 512 512;" xml:space="preserve">
<style type="text/css">
	.st0{fill:none;stroke:#FFFFFF;stroke-width:10;stroke-miterlimit:10;}
</style>
<path class="st0" d="M128,32c-53,0-96,43-96,96v256c0,53,43,96,96,96h256c53,0,96-43,96-96V128c0-53-43-96-96-96H128z M172,128
	c0-11-9-20-20-20s-20,9-20,20v256c0,11,9,20,20,20s20-9,20-20V276h168v108c0,11,9,20,20,20s20-9,20-20V128c0-11-9-20-20-20
	s-20,9-20,20v108H172V128z"/>
</svg>
