<?xml version="1.0" encoding="utf-8"?>
<!-- Generator: Adobe Illustrator 25.2.1, SVG Export Plug-In . SVG Version: 6.00 Build 0)  -->
<svg version="1.1" id="Capa_1" xmlns="http://www.w3.org/2000/svg" xmlns:xlink="http://www.w3.org/1999/xlink" x="0px" y="0px"
	 viewBox="0 0 512 512" style="enable-background:new 0 0 512 512;" xml:space="preserve">
<style type="text/css">
	.st0{fill:#FFFFFF;stroke:#000000;stroke-miterlimit:10;}
</style>
<g>
	<g>
		<path class="st0" d="M437,349.1h-43.8c-7.1-21.8-28.9-37.9-54.9-37.9c-26,0-47.7,16.1-54.9,37.9H75.1c-9,0-16.4,6.8-16.4,15.2
			c0,8.4,7.4,15.1,16.4,15.1h208.3c7.1,21.8,28.9,37.9,54.9,37.9c26,0,47.7-16.1,54.9-37.9h43.8c9.1,0,16.4-6.8,16.4-15.1
			C453.3,356,446.1,349.1,437,349.1z M338.3,387c-13.6,0-24.7-10.2-24.7-22.7c0-12.5,11.1-22.7,24.7-22.7
			c13.6,0,24.7,10.2,24.7,22.7C363,376.8,351.9,387,338.3,387z"/>
	</g>
</g>
<g>
	<g>
		<path class="st0" d="M437,106.6h-43.8c-7.2-21.8-28.9-37.9-54.9-37.9c-26,0-47.8,16.1-54.9,37.9H75.1c-9,0-16.4,6.8-16.4,15.1
			s7.4,15.1,16.4,15.1h208.3c7.2,21.8,28.9,37.9,54.9,37.9c26,0,47.7-16.1,54.9-37.9h43.8c9.1,0,16.4-6.8,16.4-15.1
			S446.1,106.6,437,106.6z M338.3,144.4c-13.6,0-24.7-10.2-24.7-22.7S324.7,99,338.3,99c13.6,0,24.7,10.2,24.7,22.7
			S351.9,144.4,338.3,144.4z"/>
	</g>
</g>
<g>
	<g>
		<path class="st0" d="M437,227.9H228.7c-7.2-21.8-28.9-37.9-54.9-37.9S126,206,118.9,227.9H75.1c-9,0-16.4,6.8-16.4,15.1
			c0,8.4,7.4,15.1,16.4,15.1h43.8c7.2,21.8,28.9,37.9,54.9,37.9s47.7-16.1,54.9-37.9h208.3c9.1,0,16.4-6.8,16.4-15.1
			C453.4,234.6,446.1,227.9,437,227.9z M173.8,265.7c-13.6,0-24.7-10.2-24.7-22.7c0-12.5,11.1-22.7,24.7-22.7s24.7,10.2,24.7,22.7
			C198.4,255.5,187.4,265.7,173.8,265.7z"/>
	</g>
</g>
</svg>
