<?xml version="1.0" encoding="utf-8"?>
<!-- Generator: Adobe Illustrator 25.2.1, SVG Export Plug-In . SVG Version: 6.00 Build 0)  -->
<svg version="1.1" id="Capa_1" xmlns="http://www.w3.org/2000/svg" xmlns:xlink="http://www.w3.org/1999/xlink" x="0px" y="0px"
	 viewBox="0 0 196.5 196.5" style="enable-background:new 0 0 196.5 196.5;" xml:space="preserve">
<style type="text/css">
	.st0{fill:#FFFFFF;}
</style>
<path class="st0" d="M48.1,76.5L26.3,65.7c6.3-12.6,15.8-23.4,27.6-31.1l13.4,20.3C59.1,60.3,52.4,67.8,48.1,76.5z M18,101.1
	c0,11.9,2.5,23.3,7.6,33.9l22-10.4c-3.5-7.4-5.2-15.3-5.2-23.6c0-1.6,0.1-3.3,0.2-4.9l-24.2-2.1C18.1,96.4,18,98.8,18,101.1z
	 M172.5,73.7c-4.8-13.2-13.1-24.9-24-33.9l-15.5,18.7c7.6,6.3,13.3,14.4,16.7,23.6L172.5,73.7z M153,101.1c0,9.8-2.6,19.5-7.5,27.9
	l21,12.3c7.1-12.1,10.9-26,10.9-40.2L153,101.1L153,101.1z M97.7,45.8c5.9,0,11.8,0.9,17.4,2.8l7.6-23.1c-8-2.7-16.4-4-25-4
	c-5.6,0-11.1,0.6-16.5,1.7l5,23.8C89.9,46.2,93.8,45.8,97.7,45.8z M85,155c-9.5-2.2-18.3-7-25.4-13.7l-16.7,17.6
	c10.3,9.7,22.9,16.6,36.6,19.8L85,155z M132,144.5c-7.7,6.1-16.9,10-26.5,11.4l3.4,24.1c13.9-2,27.2-7.7,38.2-16.4L132,144.5z"/>
</svg>
