<?xml version="1.0" encoding="utf-8"?>
<!-- Generator: Adobe Illustrator 26.1.0, SVG Export Plug-In . SVG Version: 6.00 Build 0)  -->
<svg version="1.1" id="Layer_1" xmlns="http://www.w3.org/2000/svg" xmlns:xlink="http://www.w3.org/1999/xlink" x="0px" y="0px"
	 viewBox="0 0 512 512" style="enable-background:new 0 0 512 512;" xml:space="preserve">
<style type="text/css">
	.st0{fill:none;}
	.st1{fill:#FFFFFF;}
</style>
<line class="st0" x1="529.4" y1="207.4" x2="558.2" y2="208.2"/>
<rect id="_Transparent_Rectangle_" x="-7" y="-7" class="st0" width="519" height="519"/>
<path class="st1" d="M196.7,71.5h-41v41h41V71.5z M114.7,71.4h-41v41h41V71.4z M360.7,71.6h-41v41h41V71.6z M278.7,71.5h-41v41h41
	V71.5z M114.7,153.4h-41v41h41V153.4z M114.6,235.4h-41v41h41V235.4z M442.5,440.6l0.2-369h-41l-0.2,328l-328-0.2v41L442.5,440.6z
	 M114.6,317.4h-41v41h41V317.4z"/>
</svg>
