<?xml version="1.0" encoding="utf-8"?>
<!-- Generator: Adobe Illustrator 25.2.1, SVG Export Plug-In . SVG Version: 6.00 Build 0)  -->
<svg version="1.1" id="Layer_1" xmlns="http://www.w3.org/2000/svg" xmlns:xlink="http://www.w3.org/1999/xlink" x="0px" y="0px"
	 viewBox="0 0 100 100" style="enable-background:new 0 0 100 100;" xml:space="preserve">
<style type="text/css">
	.st0{fill:none;stroke:#FFFFFF;stroke-width:5;}
</style>
<path class="st0" d="M10.9,28.3l17.4,0.9c0,0,7.8-0.9,1.7-5.2c-4.3-2.6-3.5-13,7-13.9c7-0.6,11.3,2.5,11.3,7.8
	c0,6.1-7.8,7.8-3.5,11.3c1.7,1.7,24.4,0,24.4,0S67.4,47.4,68.3,50c0.9,4.3,6.1,3.5,7.8,0c3.5-5.2,13.9-3.5,14.8,7
	c0.9,7.8-4.3,12.2-7,12.2c-7.8,0-6.1-4.3-11.3-4.3c-3.5,0-3.5,2.6-3.5,7c0,2.6,1.7,14.8,1.7,14.8s-15.7,2.6-19.1,2.6s-7,0.9-7.8-2.6
	c-0.9-3.5,5.2-7.8,0.9-11.3S30,70.9,30,79.6c0,3.5,3.5,5.2,2.6,7.8c-0.9,3.5-6.1,2.6-12.2,1.7c-6.3-0.9-7.8-0.9-7.8-0.9L10,63.1
	c0,0,0-3.5,3.5-3.5s3.5,4.3,7.8,4.3s7-2.6,7-7.8s-6.1-13-13-7S10.9,28.3,10.9,28.3"/>
</svg>
