<?xml version="1.0" encoding="utf-8"?>
<!-- Generator: Adobe Illustrator 25.2.1, SVG Export Plug-In . SVG Version: 6.00 Build 0)  -->
<svg version="1.1" id="Capa_1" xmlns="http://www.w3.org/2000/svg" xmlns:xlink="http://www.w3.org/1999/xlink" x="0px" y="0px"
	 viewBox="0 0 512 512" style="enable-background:new 0 0 512 512;" xml:space="preserve">
<style type="text/css">
	.st0{fill:#FFFFFF;stroke:#000000;stroke-miterlimit:10;}
</style>
<g>
	<g>
		<path class="st0" d="M405.5,89.9c-11.1,0-20.1,5.4-20.1,12v173l-121.6,140l-121.6-140v-173c0-6.6-8.9-12-20.1-12
			s-20.1,5.4-20.1,12v175.9c0,1.9,0.7,3.8,2.3,5.5l141.7,163.2c3.4,4,10.4,6.5,17.9,6.5c7.5,0,14.4-2.5,17.9-6.5l141.7-163.2
			c1.4-1.7,2.3-3.6,2.3-5.5V101.9C425.6,95.3,416.5,89.9,405.5,89.9z"/>
	</g>
</g>
<rect x="155.8" y="224.6" class="st0" width="45.4" height="46.8"/>
<rect x="210.8" y="174.6" class="st0" width="45.4" height="46.8"/>
<rect x="275.4" y="221.5" class="st0" width="45.4" height="46.8"/>
<rect x="327" y="170.4" class="st0" width="45.4" height="46.8"/>
<rect x="155.8" y="117.9" class="st0" width="45.4" height="46.8"/>
<rect x="210.8" y="66.5" class="st0" width="45.4" height="46.8"/>
<rect x="275.4" y="123.6" class="st0" width="45.4" height="46.8"/>
<rect x="327" y="71.1" class="st0" width="45.4" height="46.8"/>
</svg>
