<?xml version="1.0" encoding="utf-8"?>
<!-- Generator: Adobe Illustrator 25.2.1, SVG Export Plug-In . SVG Version: 6.00 Build 0)  -->
<svg version="1.1" id="Capa_1" xmlns="http://www.w3.org/2000/svg" xmlns:xlink="http://www.w3.org/1999/xlink" x="0px" y="0px"
	 viewBox="0 0 293.1 293.1" style="enable-background:new 0 0 293.1 293.1;" xml:space="preserve">
<style type="text/css">
	.st0{fill:#FFFFFF;stroke:#000000;stroke-miterlimit:10;}
</style>
<g>
	<path class="st0" d="M161.8,143.4c2.5-1.2,5.2-1.9,8.1-1.9c4.8,0,9.2,1.8,12.5,5.1l7.3-7.2c17.9,6.2,38.6,2.2,52.9-11.9
		c12-11.9,16.8-28.2,14.2-43.6c-0.3-1.7-1.5-3.1-3.2-3.6c-1.7-0.5-3.4-0.1-4.7,1.1l-10.8,10.6c-8.7,8.6-22.9,8.6-31.7,0
		s-8.7-22.6,0-31.2l10.8-10.6c1.2-1.2,1.7-3,1.1-4.6c-0.5-1.7-2-2.8-3.7-3.1c-15.6-2.5-32.2,2.2-44.2,14
		c-14.5,14.3-18.4,35.1-11.7,53l-15.7,15.4L161.8,143.4z"/>
	<path class="st0" d="M133.2,171.4l-18.6-18.4l-65.1,64.2c-8.4,8.3-8.4,21.9,0,30.2s22.2,8.3,30.6,0l56.1-55.3
		C130.6,186.6,129.5,178.1,133.2,171.4z"/>
	<path class="st0" d="M174.7,154.3c-1.3-1.3-3.1-2-4.8-2s-3.5,0.7-4.8,2l-3.9,3.8L92,89.9l3.2-3.2c2.9-2.9,2.6-7.7-0.8-10.2L66.2,56
		c-2.7-2-6.5-1.7-8.9,0.7l-12,11.8c-2.4,2.4-2.7,6.1-0.7,8.8l20.8,27.8c2.5,3.3,7.3,3.7,10.3,0.8l3.2-3.2l69.2,68.3l-4.2,4.1
		c-2.6,2.6-2.6,6.9,0,9.5l63.9,63c8.4,8.3,22.2,8.3,30.6,0s8.4-21.9,0-30.2L174.7,154.3z"/>
</g>
</svg>
