<?xml version="1.0" encoding="utf-8"?>
<!-- Generator: Adobe Illustrator 25.2.1, SVG Export Plug-In . SVG Version: 6.00 Build 0)  -->
<svg version="1.1" id="Layer_1" xmlns="http://www.w3.org/2000/svg" xmlns:xlink="http://www.w3.org/1999/xlink" x="0px" y="0px"
	 viewBox="0 0 512 512" style="enable-background:new 0 0 512 512;" xml:space="preserve">
<style type="text/css">
	.st0{fill:#FFFFFF;}
</style>
<g>
	<g>
		<path class="st0" d="M426.4,214.5c-15.5,0-28.8,9.4-34.5,22.8h-29.8c-2.6-18.5-9.9-35.5-20.6-49.7l21.1-21.1
			c13.5,5.4,29.6,2.6,40.5-8.3c14.7-14.7,14.7-38.5,0-53.2s-38.5-14.7-53.2,0c-10.9,10.9-13.7,27-8.3,40.5l-21.1,21.1
			c-14.2-10.8-31.2-18.1-49.7-20.6v-29.8c13.4-5.8,22.8-19.1,22.8-34.5c0-20.7-16.9-37.6-37.6-37.6s-37.6,16.9-37.6,37.6
			c0,15.5,9.4,28.8,22.8,34.5V146c-18.5,2.6-35.5,9.9-49.7,20.6l-21.1-21.1c5.4-13.5,2.6-29.6-8.3-40.5l0,0
			c-14.7-14.7-38.5-14.7-53.2,0c-14.7,14.7-14.7,38.5,0,53.2c10.9,10.9,27,13.7,40.5,8.3l21.1,21.1c-10.8,14.2-18.1,31.2-20.6,49.7
			h-29.8c-5.8-13.4-19.1-22.8-34.5-22.8c-20.7,0-37.6,16.9-37.6,37.6c0,20.7,16.9,37.6,37.6,37.6c15.5,0,28.8-9.4,34.5-22.8h29.8
			c2.6,18.5,9.9,35.5,20.6,49.7l-21.1,21.1c-13.5-5.4-29.6-2.6-40.5,8.3c-14.7,14.7-14.7,38.5,0,53.2c28.8,28.8,76.5-2.8,61.5-40.5
			l21.1-21.1c14.2,10.8,31.2,18.1,49.7,20.6V388c-13.4,5.8-22.8,19.1-22.8,34.5c0,20.7,16.9,37.6,37.6,37.6s37.6-16.9,37.6-37.6
			c0-15.5-9.4-28.8-22.8-34.5v-29.8c18.5-2.6,35.5-9.9,49.7-20.6l21.1,21.1c-15,37.9,32.6,69.4,61.5,40.5
			c14.7-14.7,14.7-38.5,0-53.2c-10.9-10.9-27-13.7-40.5-8.3l-21.1-21.1c10.8-14.2,18.1-31.2,20.6-49.7h29.8
			c5.8,13.4,19.1,22.8,34.5,22.8c20.7,0,37.6-16.9,37.6-37.6S447.1,214.5,426.4,214.5z M256,285.1c-18.3,0-33.1-14.8-33.1-33.1
			S237.7,219,256,219s33.1,14.8,33.1,33.1S274.3,285.1,256,285.1z"/>
	</g>
</g>
</svg>
