<?xml version="1.0" encoding="utf-8"?>
<!-- Generator: Adobe Illustrator 26.1.0, SVG Export Plug-In . SVG Version: 6.00 Build 0)  -->
<svg version="1.1" id="Layer_1" xmlns="http://www.w3.org/2000/svg" xmlns:xlink="http://www.w3.org/1999/xlink" x="0px" y="0px"
	 viewBox="0 0 461.5 461.5" style="enable-background:new 0 0 461.5 461.5;" xml:space="preserve">
<style type="text/css">
	.st0{fill:#FFFFFF;}
</style>
<g>
	<path class="st0" d="M455.1,218.4L215.8,50.6c-4.6-3.2-10.6-3.6-15.5-1c-5,2.6-8.1,7.7-8.1,13.3v105.9L23.6,50.6
		C19,47.4,13,47,8.1,49.6C3.1,52.2,0,57.3,0,62.9v335.6c0,5.6,3.1,10.7,8.1,13.3c5,2.6,11,2.2,15.5-1l168.6-118.2v105.9
		c0,5.6,3.1,10.7,8.1,13.3c5,2.6,11,2.2,15.5-1L455.1,243c4-2.8,6.4-7.4,6.4-12.3C461.5,225.8,459.1,221.3,455.1,218.4z M192.2,256
		L30,369.7V91.8l162.2,113.7V256z M222.2,369.7V91.8l198.2,139L222.2,369.7z"/>
</g>
</svg>
