<?xml version="1.0" encoding="utf-8"?>
<!-- Generator: Adobe Illustrator 26.1.0, SVG Export Plug-In . SVG Version: 6.00 Build 0)  -->
<svg version="1.1" id="Layer_1" xmlns="http://www.w3.org/2000/svg" xmlns:xlink="http://www.w3.org/1999/xlink" x="0px" y="0px"
	 viewBox="0 0 512 512" style="enable-background:new 0 0 512 512;" xml:space="preserve">
<style type="text/css">
	.st0{fill:#699F4C;}
	.st1{opacity:0.1;enable-background:new    ;}
	.st2{fill:#FFFFFF;}
	.st3{fill-rule:evenodd;clip-rule:evenodd;fill:#FFFFFF;stroke:#000000;stroke-width:15;stroke-miterlimit:10;}
</style>
<path class="st0" d="M256,478c122.6,0,222-99.4,222-222S378.6,34,256,34S34,133.4,34,256S133.4,478,256,478z"/>
<path class="st1" d="M93.7,256c0-112.5,83.7-205.4,192.2-220c-9.8-1.3-19.7-2-29.9-2C133.4,34,34,133.4,34,256s99.4,222,222,222
	c10.1,0,20.1-0.7,29.9-2C177.4,461.4,93.7,368.5,93.7,256z"/>
<path d="M406.5,92.6c-2.9,2.9-2.9,7.7,0.1,10.6c41.3,40.7,64,94.9,64,152.8c0,57.3-22.3,111.2-62.8,151.7s-94.4,62.8-151.7,62.8
	c-31.7,0-62.3-6.8-90.8-20.1c-3.7-1.7-8.2-0.1-9.9,3.6s-0.1,8.2,3.6,9.9c30.5,14.3,63.2,21.5,97.2,21.5
	c61.3,0,118.9-23.9,162.3-67.2c43.3-43.3,67.2-101,67.2-162.3c0-61.9-24.3-120-68.4-163.5C414.1,89.6,409.4,89.7,406.5,92.6z"/>
<path d="M130.8,448.4c1.3,0.8,2.7,1.2,4.1,1.2c2.4,0,4.8-1.2,6.3-3.4c2.3-3.5,1.3-8.1-2.2-10.3C77.9,396,41.4,328.8,41.4,256
	c0-57.3,22.3-111.2,62.8-151.7s94.4-62.8,151.7-62.8c46.8,0,91.3,14.8,128.7,42.8c3.3,2.5,8,1.8,10.5-1.5s1.8-8-1.5-10.5
	c-40-30-87.5-45.8-137.6-45.8c-61.3,0-118.9,23.9-162.3,67.2C50.4,137,26.5,194.7,26.5,256C26.5,333.9,65.5,405.8,130.8,448.4z"/>
<line class="st2" x1="600.7" y1="-25.1" x2="658.8" y2="-23.4"/>
<path class="st3" d="M375.1,146.1l0.5,0.5l13.4,13.6c10.2,10.6,10.2,27.3,0,37.9L223.9,365.8c-9.6,9.9-25.3,10.2-35.2,0.6l-0.4-0.4
	l-65.1-64.7c-10.5-10.6-10.5-27.7,0-38.3l13.8-13.7c9.7-9.8,25.5-9.8,35.2-0.2l0.5,0.6l24.4,25.3c4.7,5,12.6,5.2,17.6,0.5l0.5-0.5
	l124.3-128.2c9.5-10,25.2-10.4,35.2-0.9L375.1,146.1z"/>
</svg>
