<?xml version="1.0" encoding="utf-8"?>
<!-- Generator: Adobe Illustrator 26.1.0, SVG Export Plug-In . SVG Version: 6.00 Build 0)  -->
<svg version="1.1" id="Layer_1" xmlns="http://www.w3.org/2000/svg" xmlns:xlink="http://www.w3.org/1999/xlink" x="0px" y="0px"
	 viewBox="0 0 496.2 496.2" style="enable-background:new 0 0 496.2 496.2;" xml:space="preserve">
<style type="text/css">
	.st0{fill:#FFFFFF;}
</style>
<path class="st0" d="M156.6,154.9c-4.9,0-9.8-1.9-13.5-5.6c-7.5-7.5-7.5-19.6,0-27.1c28.1-28.1,65.4-43.6,105.1-43.6
	s77,15.5,105.1,43.5c7.5,7.5,7.5,19.6,0,27.1s-19.6,7.5-27.1,0c-20.8-20.8-48.5-32.3-77.9-32.3c-29.5,0-57.1,11.5-78,32.3
	C166.4,153.1,161.5,154.9,156.6,154.9z"/>
<path class="st0" d="M248.1,114.8c-10.6,0-19.2-8.6-19.2-19.2V19.2C229,8.6,237.6,0,248.1,0s19.2,8.6,19.2,19.2v76.4
	C267.3,106.2,258.7,114.8,248.1,114.8z"/>
<path class="st0" d="M248.1,417.6c-39.7,0-77-15.5-105.1-43.5c-7.5-7.5-7.5-19.6,0-27.1s19.6-7.5,27.1,0
	c20.8,20.8,48.5,32.3,77.9,32.3c29.5,0,57.1-11.5,78-32.3c7.5-7.5,19.6-7.5,27.1,0s7.5,19.6,0,27.1
	C325.1,402.1,287.8,417.6,248.1,417.6z"/>
<path class="st0" d="M248.1,496.2c-10.6,0-19.2-8.6-19.2-19.2v-76.4c0-10.6,8.6-19.2,19.2-19.2c10.6,0,19.2,8.6,19.2,19.2V477
	C267.3,487.7,258.7,496.2,248.1,496.2z"/>
<path class="st0" d="M360.5,358.8c-4.9,0-9.8-1.9-13.6-5.6c-7.5-7.5-7.5-19.6,0-27.1c20.8-20.8,32.3-48.5,32.3-77.9
	s-11.5-57.1-32.3-78c-7.5-7.5-7.5-19.6,0-27.1s19.6-7.5,27.1,0c28.1,28.1,43.6,65.4,43.6,105.1s-15.4,77-43.5,105.1
	C370.3,356.9,365.4,358.8,360.5,358.8z"/>
<path class="st0" d="M477.1,267.3h-76.4c-10.6,0-19.2-8.6-19.2-19.2s8.6-19.2,19.2-19.2h76.4c10.6,0,19.2,8.6,19.2,19.2
	C496.2,258.7,487.7,267.3,477.1,267.3z"/>
<path class="st0" d="M135.8,358.8c-4.9,0-9.8-1.9-13.6-5.6c-28.1-28.1-43.6-65.4-43.6-105.1s15.5-77,43.5-105.1
	c7.5-7.5,19.6-7.5,27.1,0s7.5,19.6,0,27.1c-20.8,20.9-32.2,48.5-32.2,78s11.5,57.2,32.3,78c7.5,7.5,7.5,19.6,0,27.1
	C145.6,356.9,140.7,358.8,135.8,358.8z"/>
<path class="st0" d="M95.6,267.3H19.2C8.6,267.3,0,258.7,0,248.1c0-10.6,8.6-19.2,19.2-19.2h76.4c10.6,0,19.2,8.6,19.2,19.2
	C114.8,258.7,106.2,267.3,95.6,267.3z"/>
</svg>
