<?xml version="1.0" encoding="utf-8"?>
<!-- Generator: Adobe Illustrator 25.2.1, SVG Export Plug-In . SVG Version: 6.00 Build 0)  -->
<svg version="1.1" id="Capa_1" xmlns="http://www.w3.org/2000/svg" xmlns:xlink="http://www.w3.org/1999/xlink" x="0px" y="0px"
	 viewBox="0 0 200.5 200.5" style="enable-background:new 0 0 200.5 200.5;" xml:space="preserve">
<style type="text/css">
	.st0{fill:#FFFFFF;stroke:#000000;stroke-miterlimit:10;}
</style>
<path class="st0" d="M159.8,119.2c-4.5,0-8.2,3.5-8.2,7.9c0,18.9-18.4,34.5-42.3,37.5v-62.9h17.4c2.7,4,7.4,6.7,12.8,6.7
	c8.4,0,15.2-6.5,15.2-14.6s-6.8-14.6-15.2-14.6c-5.4,0-10.1,2.7-12.8,6.7h-17.4v-15c0-0.1,0-0.2,0-0.3c10.1-3.3,17.4-12.4,17.4-23.1
	c0-13.5-11.5-24.5-25.6-24.5S75.5,34,75.5,47.5c0,10.7,7.3,19.8,17.4,23.1c0,0.1,0,0.2,0,0.3v15H75.4c-2.7-4-7.4-6.7-12.8-6.7
	c-8.4,0-15.2,6.5-15.2,14.6s6.8,14.6,15.2,14.6c5.4,0,10.1-2.7,12.8-6.7h17.4v62.9c-24-3-42.3-18.6-42.3-37.5c0-4.3-3.7-7.9-8.2-7.9
	s-8.2,3.5-8.2,7.9c0,29.7,30.1,53.8,67,53.8s67-24.2,67-53.8C168.1,122.7,164.4,119.2,159.8,119.2z M101.1,38.8c5,0,9.1,3.9,9.1,8.7
	s-4.1,8.7-9.1,8.7s-9.1-3.9-9.1-8.7S96.1,38.8,101.1,38.8z"/>
</svg>
