<?xml version="1.0" encoding="utf-8"?>
<!-- Generator: Adobe Illustrator 26.1.0, SVG Export Plug-In . SVG Version: 6.00 Build 0)  -->
<svg version="1.1" id="Layer_1" xmlns="http://www.w3.org/2000/svg" xmlns:xlink="http://www.w3.org/1999/xlink" x="0px" y="0px"
	 viewBox="0 0 512 512" style="enable-background:new 0 0 512 512;" xml:space="preserve">
<style type="text/css">
	.st0{fill:none;}
	.st1{fill:#FFFFFF;}
	.st2{fill-rule:evenodd;clip-rule:evenodd;fill:#699F4C;stroke:#000000;stroke-width:6;stroke-miterlimit:10;}
</style>
<line class="st0" x1="529.4" y1="207.4" x2="558.2" y2="208.2"/>
<rect id="_Transparent_Rectangle_" x="-7" y="-7" class="st0" width="519" height="519"/>
<path class="st1" d="M196.6,33.5l-41,0l0,41l41,0L196.6,33.5z M114.6,33.4l-41,0l0,41l41,0L114.6,33.4z M360.6,33.6l-41,0l0,41l41,0
	L360.6,33.6z M278.6,33.5l-41,0l0,41l41,0L278.6,33.5z M114.6,115.4l-41,0l0,41l41,0L114.6,115.4z M114.5,197.4l-41,0l0,41l41,0
	L114.5,197.4z M442.4,402.6l0.2-369l-41,0l-0.2,328l-328-0.2l0,41L442.4,402.6z M114.5,279.4l-41,0l0,41l41,0L114.5,279.4z"/>
<path class="st2" d="M463.3,173l0.5,0.7l18.1,25c13.6,19.4,9.5,46.4-9.4,61L166.1,488.5c-18,13.5-43.1,10-56.6-7.6l-0.5-0.7
	L20.3,360.2c-14.2-19.5-10.1-47.1,9.5-61.6l25.5-18.7c18-13.5,43.4-9.6,56.5,8.4l0.5,1.1l33,46.5c6.2,9.2,18.9,11.5,28.1,5l0.7-0.5
	l231.2-175.4c17.7-13.9,43.1-10.4,56.7,7.4L463.3,173z"/>
</svg>
