<?xml version="1.0" encoding="utf-8"?>
<!-- Generator: Adobe Illustrator 26.1.0, SVG Export Plug-In . SVG Version: 6.00 Build 0)  -->
<svg version="1.1" id="Layer_1" xmlns="http://www.w3.org/2000/svg" xmlns:xlink="http://www.w3.org/1999/xlink" x="0px" y="0px"
	 viewBox="0 0 512 512" style="enable-background:new 0 0 512 512;" xml:space="preserve">
<style type="text/css">
	.st0{fill:#FF6465;}
	.st1{opacity:0.1;enable-background:new    ;}
	.st2{fill:#FFFFFF;}
</style>
<path class="st0" d="M256,478c122.6,0,222-99.4,222-222S378.6,34,256,34S34,133.4,34,256S133.4,478,256,478z"/>
<path class="st1" d="M93.7,256c0-112.5,83.7-205.4,192.2-220c-9.8-1.3-19.7-2-29.9-2C133.4,34,34,133.4,34,256s99.4,222,222,222
	c10.1,0,20.1-0.7,29.9-2C177.4,461.4,93.7,368.5,93.7,256z"/>
<path class="st2" d="M305.8,256l58.5-58.5c4.2-4.2,4.2-11.1,0-15.4l-34.4-34.4c-4.2-4.2-11.1-4.2-15.4,0L256,206.2l-58.5-58.5
	c-4.2-4.2-11.1-4.2-15.4,0l-34.4,34.4c-4.2,4.2-4.2,11.1,0,15.4l58.5,58.5l-58.5,58.5c-4.2,4.2-4.2,11.1,0,15.4l34.4,34.4
	c4.2,4.2,11.1,4.2,15.4,0l58.5-58.5l58.5,58.5c4.2,4.2,11.1,4.2,15.4,0l34.4-34.4c4.2-4.2,4.2-11.1,0-15.4L305.8,256z"/>
<path d="M374.9,189.9c0-4.9-1.9-9.5-5.4-13l-34.4-34.4c-3.5-3.5-8.1-5.4-13-5.4c-4.9,0-9.5,1.9-13,5.4L256,195.7l-53.2-53.2
	c-3.5-3.5-8.1-5.4-13-5.4s-9.5,1.9-13,5.4l-34.4,34.4c-7.2,7.2-7.2,18.8,0,25.9l53.2,53.2l-53.2,53.2c-7.2,7.2-7.2,18.8,0,25.9
	l34.4,34.4c3.5,3.5,8.1,5.4,13,5.4s9.5-1.9,13-5.4l53.2-53.2l53.2,53.2c3.5,3.5,8.1,5.4,13,5.4c4.9,0,9.5-1.9,13-5.4l34.4-34.4
	c3.5-3.5,5.4-8.1,5.4-13s-1.9-9.5-5.4-13L316.3,256l53.2-53.2C373,199.4,374.9,194.8,374.9,189.9z M359,192.3l-58.5,58.5
	c-2.9,2.9-2.9,7.6,0,10.6l58.5,58.5c0.9,0.9,1,1.9,1,2.4s-0.1,1.5-1,2.4L324.6,359c-0.9,0.9-1.9,1-2.4,1c-0.5,0-1.5-0.1-2.4-1
	l-58.5-58.5c-1.5-1.5-3.4-2.2-5.3-2.2c-1.9,0-3.8,0.7-5.3,2.2L192.3,359c-0.9,0.9-1.9,1-2.4,1c-0.5,0-1.5-0.1-2.4-1L153,324.6
	c-1.3-1.3-1.3-3.5,0-4.8l58.5-58.5c2.9-2.9,2.9-7.6,0-10.6L153,192.3c-1.3-1.3-1.3-3.5,0-4.8l34.4-34.4c0.9-0.9,1.9-1,2.4-1
	s1.5,0.1,2.4,1l58.5,58.5c2.9,2.9,7.6,2.9,10.6,0l58.5-58.5c0.9-0.9,1.9-1,2.4-1s1.5,0.1,2.4,1l34.4,34.4c0.9,0.9,1,1.9,1,2.4
	S359.8,191.4,359,192.3z"/>
<path d="M406.5,92.6c-2.9,2.9-2.9,7.7,0.1,10.6c41.3,40.7,64,94.9,64,152.8c0,57.3-22.3,111.2-62.8,151.7s-94.4,62.8-151.7,62.8
	c-31.7,0-62.3-6.8-90.8-20.1c-3.7-1.7-8.2-0.1-9.9,3.6c-1.7,3.7-0.1,8.2,3.6,9.9c30.5,14.3,63.2,21.5,97.2,21.5
	c61.3,0,118.9-23.9,162.3-67.2c43.3-43.3,67.2-101,67.2-162.3c0-61.9-24.3-120-68.4-163.5C414.1,89.6,409.4,89.7,406.5,92.6z"/>
<path d="M130.8,448.4c1.3,0.8,2.7,1.2,4.1,1.2c2.4,0,4.8-1.2,6.3-3.4c2.3-3.5,1.3-8.1-2.2-10.3C77.9,396,41.4,328.8,41.4,256
	c0-57.3,22.3-111.2,62.8-151.7c40.5-40.5,94.4-62.8,151.7-62.8c46.8,0,91.3,14.8,128.7,42.8c3.3,2.5,8,1.8,10.5-1.5
	c2.5-3.3,1.8-8-1.5-10.5c-40-30-87.5-45.8-137.6-45.8c-61.3,0-118.9,23.9-162.3,67.2c-43.3,43.3-67.2,101-67.2,162.3
	C26.5,333.9,65.5,405.8,130.8,448.4z"/>
</svg>
