<?xml version="1.0" encoding="utf-8"?>
<!-- Generator: Adobe Illustrator 26.1.0, SVG Export Plug-In . SVG Version: 6.00 Build 0)  -->
<svg version="1.1" id="Capa_1" xmlns="http://www.w3.org/2000/svg" xmlns:xlink="http://www.w3.org/1999/xlink" x="0px" y="0px"
	 viewBox="0 0 295.1 295.1" style="enable-background:new 0 0 295.1 295.1;" xml:space="preserve">
<style type="text/css">
	.st0{fill:#FFFFFF;stroke:#FFFFFF;stroke-miterlimit:10;}
</style>
<path class="st0" d="M220.8,155.5c-6,0-11.2,3.2-14.2,7.9V158c0-9.2-7.5-16.7-16.7-16.7c-6,0-11.2,3.2-14.2,7.9v-3.7
	c0-9.2-7.5-16.7-16.7-16.7c-6,0-11.2,3.2-14.2,7.9V86.4c0-9.2-7.5-16.7-16.7-16.7s-16.7,7.5-16.7,16.7v125.4l-18.7-24
	c-5.6-7.3-16.2-8.6-23.4-2.9c-7.3,5.6-8.6,16.2-2.9,23.4l52.4,67.1c7.9,11.8,21.3,19.6,36.5,19.6H188c26.6,0,49.2-21.5,49.2-49.2
	c0-7.5,0-66.7,0-73.4C237.5,163,230.1,155.5,220.8,155.5z"/>
</svg>
