<?xml version="1.0" encoding="utf-8"?>
<!-- Generator: Adobe Illustrator 26.1.0, SVG Export Plug-In . SVG Version: 6.00 Build 0)  -->
<svg version="1.1" id="Layer_1" xmlns="http://www.w3.org/2000/svg" xmlns:xlink="http://www.w3.org/1999/xlink" x="0px" y="0px"
	 viewBox="0 0 512 512" style="enable-background:new 0 0 512 512;" xml:space="preserve">
<style type="text/css">
	.st0{fill:#FFFFFF;}
</style>
<path class="st0" d="M263.1,50c-11.9,0-23.9,1-35.9,3.1C142,68.2,75.2,135,60.1,220.2c-15,85.2,24.9,170.9,99.9,214.2
	c32.8,18.9,69.3,28,105.5,27.6c46.6-0.6,92.7-16.9,130-48.1L364.6,377c-51,42.8-123,49-180.6,15.8c-57.6-33.3-88.2-98.8-76.6-164.3
	c11.6-65.5,62.7-116.6,128.2-128.2c51.7-9.1,103.3,8,139.2,43.9L327,192h128V64l-46.3,46.3C370.2,72,317.8,50,263.1,50z"/>
</svg>
