<?xml version="1.0" encoding="utf-8"?>
<!-- Generator: Adobe Illustrator 25.2.1, SVG Export Plug-In . SVG Version: 6.00 Build 0)  -->
<svg version="1.1" id="Capa_1" xmlns="http://www.w3.org/2000/svg" xmlns:xlink="http://www.w3.org/1999/xlink" x="0px" y="0px"
	 viewBox="0 0 495.8 495.8" style="enable-background:new 0 0 495.8 495.8;" xml:space="preserve">
<style type="text/css">
	.st0{fill:#FFFFFF;stroke:#000000;stroke-miterlimit:10;}
</style>
<g>
	<path class="st0" d="M239.1,343.6l22.2-20.6l-19.2-17.8l-22.2,20.6c-14.8,13.8-40.6,13.8-55.4,0l-70.3-65.4c-1-0.9-1.6-2.3-1.6-3.7
		c0-1.4,0.6-2.7,1.7-3.7l45.9-42.7L121,192.4l-45.9,42.7c-6.1,5.7-9.6,13.5-9.6,21.6s3.5,15.9,9.6,21.6l70.3,65.4
		c12.6,11.7,29.2,18.1,46.9,18.1C210,361.6,226.6,355.2,239.1,343.6z"/>
	<path class="st0" d="M406.2,145l-94.1-87.4c-12.2-11.4-34-11.4-46.3,0l-116.1,108l9.6,8.9l121.2,112.8l9.6,9l116-107.9
		c6.2-5.8,9.6-13.4,9.6-21.6C415.7,158.5,412.4,150.8,406.2,145z"/>
	<path class="st0" d="M228.9,374.7c0,7,6.1,12.6,13.6,12.6H312c7.5,0,13.6-5.7,13.6-12.6c0-7-6.1-12.6-13.6-12.6h-69.6
		C234.9,362,228.9,367.6,228.9,374.7z"/>
	<path class="st0" d="M366.9,409.8h-199c-7.4,0-13.6,5.7-13.6,12.6c0,7,6.1,12.6,13.6,12.6h199c7.5,0,13.6-5.6,13.6-12.6
		C380.5,415.5,374.4,409.8,366.9,409.8z"/>
</g>
</svg>
