<?xml version="1.0" encoding="utf-8"?>
<!-- Generator: Adobe Illustrator 26.2.1, SVG Export Plug-In . SVG Version: 6.00 Build 0)  -->
<svg version="1.1" id="Uploaded_to_svgrepo.com" xmlns="http://www.w3.org/2000/svg" xmlns:xlink="http://www.w3.org/1999/xlink"
	 x="0px" y="0px" viewBox="0 0 32 32" style="enable-background:new 0 0 32 32;" xml:space="preserve">
<style type="text/css">
	.st0{fill:#FFFFFF;}
</style>
<path class="st0" d="M7.3,16.3l-1.2,1.1c0,0-0.1,0.1-0.1,0.6v3c0,1.1-0.9,2-2,2s-2-0.9-2-2v-4c0-2,1.3-5,5-5l4.6,0L7.3,16.3z
	 M17,17.3c0.6,0,1-0.4,1-1V7c0-2.8,2.5-3,3-3c0.5,0,3,0.2,3,3v4.5l2,2V7c0-4-3.3-5-5-5s-5,1-5,5v9.3C16,16.8,16.4,17.3,17,17.3z
	 M29.6,18.5L19,8v8.3c0,1.1-0.9,2-2,2s-2-0.9-2-2V10l-8,8l11.6,11.5c0.8,0.8,2.1,0.8,2.8,0l8.2-8.2C30.4,20.5,30.4,19.3,29.6,18.5z
	 M4,25c-1.1,0-2,0.9-2,2s0.9,2,2,2s2-0.9,2-2C6,25.9,5.1,25,4,25z"/>
</svg>
