<?xml version="1.0" encoding="utf-8"?>
<!-- Generator: Adobe Illustrator 26.0.3, SVG Export Plug-In . SVG Version: 6.00 Build 0)  -->
<svg version="1.1" id="Layer_1" xmlns="http://www.w3.org/2000/svg" xmlns:xlink="http://www.w3.org/1999/xlink" x="0px" y="0px"
	 viewBox="0 0 107.9 122.9" style="enable-background:new 0 0 107.9 122.9;" xml:space="preserve">
<style type="text/css">
	.st0{fill-rule:evenodd;clip-rule:evenodd;fill:#FFFFFF;}
</style>
<path class="st0" d="M80.6,79.1c10.7,3.4,17.6,8.7,17.6,14.8c0,10.2-19.5,18.4-43.6,18.4S11,104.1,11,93.9c0-6.2,7.3-11.7,18.4-15
	c0.4,0.6,0.8,1.2,1.2,1.8c0.9,1.3,1.8,2.5,2.7,3.7c-7.8,2.1-12.8,5.3-12.8,8.9c0,6.3,15.1,11.4,33.7,11.4S88,99.6,88,93.3
	c0-3.4-4.3-6.4-11.2-8.5C78.1,83,79.4,81.1,80.6,79.1L80.6,79.1z M68.9,81.3c-3.6,4-7.8,7.5-12.5,10.3c-0.6,0.4-1.4,0.5-2,0.1
	c-6.6-4.2-12.5-9.4-17.4-15.5C30.8,68.3,26.8,59.5,25.4,51c-1.4-8.6-0.1-16.8,4.2-23.6c1.7-2.7,3.9-5.2,6.5-7.2
	c6-4.8,12.9-7.3,19.8-7.3c7,0.1,13.7,2.8,18.8,7.7c2,1.8,3.6,3.8,5,6.1c4.6,7.6,5.6,17.2,3.6,27C80.9,64,76,73.5,68.9,81.3
	L68.9,81.3L68.9,81.3z M54.5,28.3c8.1,0,14.8,6.6,14.8,14.8s-6.6,14.8-14.8,14.8S39.8,51.2,39.8,43C39.8,34.9,46.4,28.3,54.5,28.3
	C54.5,28.3,54.5,28.3,54.5,28.3z"/>
</svg>
