<?xml version="1.0" encoding="utf-8"?>
<!-- Generator: Adobe Illustrator 25.2.1, SVG Export Plug-In . SVG Version: 6.00 Build 0)  -->
<svg version="1.1" id="Layer_1" xmlns="http://www.w3.org/2000/svg" xmlns:xlink="http://www.w3.org/1999/xlink" x="0px" y="0px"
	 viewBox="0 0 512 512" style="enable-background:new 0 0 512 512;" xml:space="preserve">
<style type="text/css">
	.st0{fill:#FFFFFF;stroke:#000000;stroke-miterlimit:10;}
</style>
<path class="st0" d="M440.4,181.3c8.3-40.2-20.9-77.8-61.7-82.1c-21.3-49-90.1-57.2-122.6-13.1C223.7,42,154.8,50.2,133.5,99.2
	c-40.8,4.3-70.1,42.1-61.7,82.1c-30.4,24.8-33.6,69-8,97.7c-42.4,55.5-2.1,136.5,71,136.5c23.3,47.4,90,53,121.3,10.4
	c31.4,42.6,98.1,37,121.3-10.4c72.9,0.2,113.4-80.9,71-136.5C473.9,250.3,470.8,206.1,440.4,181.3L440.4,181.3z M196.9,428.6
	c-36.9,0-58.2-42.2-34.1-70.6c4.7-5.5,3.8-13.5-1.8-18.1s-13.9-3.7-18.6,1.8c-11.1,13.1-17,30-16.1,47.4
	c-50.1-5.2-72.4-63.5-39.3-99.4c0.3,0.4,12.8-16.9,39.3-19.6c-0.4,8.4,0.7,16.7,3.4,24.9c1.8,5.4,7,8.8,12.5,8.8
	c8.9,0,15.4-8.5,12.5-16.9c-7.6-22.6,5.2-47,28.3-54.4c7-2.2,10.7-9.5,8.4-16.3c-2.3-6.8-9.7-10.4-16.7-8.2c-3,1-6,2.2-8.8,3.4
	c-5.2-13.1-1.6-28.6,10.1-38.1c5.6-4.5,6.4-12.7,1.7-18.1c-4.7-5.5-13-6.2-18.6-1.7c-22.9,18.5-28.2,49.5-14.9,73.6
	c-8.9,9.6-11,16.7-11.7,16.7c-19.4,0-37.3,6.1-51.9,16.6C64.5,240.7,69.1,210.9,92,197c5.2-3.2,7.5-9.6,5.5-15.2
	c-9.6-26.5,8.8-57.6,43.8-57.6c6,0,11.2-3.9,12.8-9.6c5.2-18.9,22.8-32,42.8-32c24.4,0,44.3,19.4,44.3,43.1v259.7
	C241.2,409.2,221.3,428.6,196.9,428.6L196.9,428.6z M427.9,260.5c-15.8-11.2-34.9-16.8-52.1-16.5c-3-6.1-6.7-11.6-11.5-16.7
	c13.3-24.1,8-55.1-14.9-73.6c-5.6-4.5-13.9-3.7-18.6,1.7c-4.7,5.5-3.8,13.5,1.7,18.1c11.7,9.5,15.4,24.9,10.1,38.1
	c-2.8-1.4-5.7-2.5-8.8-3.4c-7-2.2-14.4,1.5-16.7,8.2c-2.3,6.7,1.6,14,8.4,16.3c23.2,7.4,35.9,31.8,28.3,54.4
	c-2.3,6.8,1.6,14,8.4,16.3c6.9,2.2,14.4-1.4,16.7-8.2c2.8-8.1,3.8-16.6,3.4-24.9c31,3.2,54.9,28.9,54.9,59.5
	c0,30.8-24.1,56.3-55,59.5c0.9-17.3-4.9-34.3-16.1-47.4c-4.7-5.5-13-6.2-18.6-1.8c-5.6,4.5-6.4,12.7-1.8,18.1
	c24,28.3,2.8,70.6-34.1,70.6c-24.4,0-44.3-19.4-44.3-43.1V125.7c0-23.7,19.9-43.1,44.3-43.1c20.1,0,37.7,13.1,42.8,32
	c1.6,5.8,7,9.8,13.2,9.6c30.9-1.1,53.8,28.8,43.2,57.6c-2.1,5.7,0.2,12,5.5,15.2C439.5,210.9,444.1,240.7,427.9,260.5L427.9,260.5z"
	/>
</svg>
