<?xml version="1.0" encoding="utf-8"?>
<!-- Generator: Adobe Illustrator 27.0.0, SVG Export Plug-In . SVG Version: 6.00 Build 0)  -->
<svg version="1.1" id="Layer_1" xmlns="http://www.w3.org/2000/svg" xmlns:xlink="http://www.w3.org/1999/xlink" x="0px" y="0px"
	 viewBox="0 0 595.3 841.9" style="enable-background:new 0 0 595.3 841.9;" xml:space="preserve">
<style type="text/css">
	.st0{fill:none;stroke:#FFFFFF;stroke-width:4;stroke-miterlimit:10;}
	.st1{fill:#1D1D1B;stroke:#FFFFFF;stroke-width:4;stroke-miterlimit:10;}
	.st2{fill:#FFFFFF;stroke:#FFFFFF;stroke-miterlimit:10;}
	.st3{font-family:'Arial-BoldMT';}
	.st4{font-size:32px;}
	.st5{fill:none;stroke:#FFFFFF;stroke-width:3;stroke-miterlimit:10;}
	.st6{fill:#1D1D1B;stroke:#FFFFFF;stroke-width:3;stroke-miterlimit:10;}
	.st7{font-family:'ArialRoundedMTBold';}
	.st8{font-size:35px;}
</style>
<path class="st0" d="M251,98.9v636.8c26.2,24.3,52.1,48.6,78.3,72.9c24.4-24.3,48.8-48.6,73.1-72.9V98.9L251,98.9z"/>
<rect x="344" y="117" class="st0" width="40" height="40"/>
<rect x="344" y="207" class="st0" width="40" height="40"/>
<rect x="344" y="297" class="st0" width="40" height="40"/>
<rect x="344" y="387" class="st0" width="40" height="40"/>
<rect x="344" y="477" class="st0" width="40" height="40"/>
<rect x="344" y="567" class="st0" width="40" height="40"/>
<rect x="344" y="657" class="st0" width="40" height="40"/>
<rect x="267" y="159.1" class="st0" width="40" height="40"/>
<rect x="267" y="249.1" class="st0" width="40" height="40"/>
<rect x="267" y="339.1" class="st0" width="40" height="40"/>
<rect x="267" y="429.1" class="st0" width="40" height="40"/>
<rect x="267" y="519.1" class="st0" width="40" height="40"/>
<rect x="267" y="609.1" class="st0" width="40" height="40"/>
<path class="st0" d="M251,734.3h151.4H251z"/>
<polyline class="st0" points="329.3,808.6 344,803.9 418.2,731 418.2,91 402.4,98.9 251,98.9 263.9,91 "/>
<line class="st0" x1="263.2" y1="90.4" x2="419.2" y2="90.4"/>
<line class="st0" x1="334.7" y1="94.7" x2="334.7" y2="28"/>
<line class="st1" x1="338.1" y1="805.8" x2="338.1" y2="834"/>
<text transform="matrix(1 0 0 1 343.8154 39.2294)" class="st2 st3 st4">Probe Center</text>
<path class="st5" d="M326.7,716.8v17.5V716.8z"/>
<line class="st5" x1="287" y1="629.1" x2="287" y2="734.3"/>
<line class="st5" x1="364" y1="678.6" x2="364" y2="734.3"/>
<g>
	<polyline class="st5" points="286.1,109.7 286.1,114.7 286.1,119.7 	"/>
	<line class="st5" x1="325.8" y1="114.7" x2="286.1" y2="114.7"/>
	<polyline class="st5" points="325.8,109.4 325.8,114.4 325.8,119.4 	"/>
</g>
<line class="st6" x1="524.8" y1="734.3" x2="514.8" y2="734.3"/>
<line class="st6" x1="519.8" y1="734.3" x2="519.8" y2="808.6"/>
<line class="st6" x1="524.6" y1="807.8" x2="514.6" y2="807.8"/>
<path class="st5" d="M326.7,681.7v17.5V681.7z"/>
<path class="st5" d="M326.7,646.8v17.5V646.8z"/>
<path class="st5" d="M326.7,611.6v17.5V611.6z"/>
<path class="st5" d="M326.7,576.8v17.5V576.8z"/>
<path class="st5" d="M326.7,541.6v17.5V541.6z"/>
<path class="st5" d="M326.7,506.7v17.5V506.7z"/>
<path class="st5" d="M326.7,471.5V489V471.5z"/>
<path class="st5" d="M326.7,433.3v17.5V433.3z"/>
<path class="st5" d="M326.7,398.1v17.5V398.1z"/>
<path class="st5" d="M326.7,363.2v17.5V363.2z"/>
<path class="st5" d="M326.7,328.1v17.5V328.1z"/>
<path class="st5" d="M326.7,293.2v17.5V293.2z"/>
<path class="st5" d="M326.7,258.1v17.5V258.1z"/>
<path class="st5" d="M326.7,223.2v17.5V223.2z"/>
<path class="st5" d="M326.7,188v17.5V188z"/>
<path class="st5" d="M326.7,159.1v17.5V159.1z"/>
<line class="st6" x1="221.3" y1="269.1" x2="221.3" y2="359.1"/>
<line class="st6" x1="215" y1="269.1" x2="228" y2="269.1"/>
<line class="st6" x1="215.1" y1="359.1" x2="228.1" y2="359.1"/>
<line class="st6" x1="427.5" y1="734.3" x2="438.7" y2="734.3"/>
<line class="st6" x1="449.9" y1="734.3" x2="461.2" y2="734.3"/>
<line class="st6" x1="474.6" y1="734.3" x2="485.8" y2="734.3"/>
<line class="st6" x1="497.1" y1="734.3" x2="508.3" y2="734.3"/>
<line class="st6" x1="354.5" y1="807.8" x2="365.7" y2="807.8"/>
<line class="st6" x1="376.9" y1="807.8" x2="388.1" y2="807.8"/>
<line class="st6" x1="401.6" y1="807.8" x2="412.8" y2="807.8"/>
<line class="st6" x1="424" y1="807.8" x2="435.3" y2="807.8"/>
<line class="st6" x1="451.3" y1="807.8" x2="462.6" y2="807.8"/>
<line class="st6" x1="473.8" y1="807.8" x2="485" y2="807.8"/>
<line class="st6" x1="498.4" y1="807.8" x2="509.7" y2="807.8"/>
<line class="st6" x1="221.9" y1="630.1" x2="221.9" y2="732.7"/>
<line class="st6" x1="215.7" y1="629.7" x2="228.7" y2="629.7"/>
<line class="st6" x1="215.7" y1="733.7" x2="228.7" y2="733.7"/>
<line class="st6" x1="148" y1="98.9" x2="148" y2="808.2"/>
<line class="st6" x1="141.5" y1="98.9" x2="154.5" y2="98.9"/>
<line class="st6" x1="141.1" y1="808.6" x2="154.1" y2="808.6"/>
<text transform="matrix(1 0 0 1 98.3428 418.765)" class="st2 st7 st8">A</text>
<text transform="matrix(1 0 0 1 531.3125 783.1488)" class="st2 st7 st8">B</text>
<text transform="matrix(1 0 0 1 186.9014 326.016)" class="st2 st7 st8">C</text>
<text transform="matrix(1 0 0 1 291.6641 144.8719)" class="st2 st7 st8">D</text>
<text transform="matrix(1 0 0 1 192.9014 692.4808)" class="st2 st7 st8">E</text>
</svg>
