<?xml version="1.0" encoding="utf-8"?>
<!-- Generator: Adobe Illustrator 27.0.0, SVG Export Plug-In . SVG Version: 6.00 Build 0)  -->
<svg version="1.1" id="Capa_1" xmlns="http://www.w3.org/2000/svg" xmlns:xlink="http://www.w3.org/1999/xlink" x="0px" y="0px"
	 viewBox="0 0 60 60" style="enable-background:new 0 0 60 60;" xml:space="preserve">
<style type="text/css">
	.st0{fill:#FFFFFF;}
</style>
<g>
	<path class="st0" d="M59,0H1C0.4,0,0,0.4,0,1v58c0,0.6,0.4,1,1,1h58c0.6,0,1-0.4,1-1V1C60,0.4,59.6,0,59,0z M18.7,50.8l-3.8-2
		l-3.8,2l0.7-4.2l-3-3l4.2-0.6l1.9-3.8l1.9,3.8l4.2,0.6l-3,3L18.7,50.8z M18,31.2l0.7,4.2l-3.8-2l-3.8,2l0.7-4.2l-3-3l4.2-0.6
		l1.9-3.8l1.9,3.8l4.2,0.6L18,31.2z M18,16.1l0.7,4.2l-3.8-2l-3.8,2l0.7-4.2l-3-3l4.2-0.6l1.9-3.8l1.9,3.8l4.2,0.6L18,16.1z M47,48
		H23v-4h24V48z M47,33H23v-4h24V33z M47,18H23v-4h24V18z"/>
</g>
</svg>
