<?xml version="1.0" encoding="utf-8"?>
<!-- Generator: Adobe Illustrator 25.2.1, SVG Export Plug-In . SVG Version: 6.00 Build 0)  -->
<svg version="1.1" id="Layer_1" xmlns="http://www.w3.org/2000/svg" xmlns:xlink="http://www.w3.org/1999/xlink" x="0px" y="0px"
	 viewBox="0 0 349.7 349.7" style="enable-background:new 0 0 349.7 349.7;" xml:space="preserve">
<style type="text/css">
	.st0{fill:#FFFFFF;}
</style>
<g>
	<path class="st0" d="M174.8,35.9c-56,0-101.6,45.6-101.6,101.6c0,23.2,16.3,57.5,48.4,102c23.4,32.5,47.2,59,47.5,59.2l5.7,6.3
		l5.7-6.3c0.2-0.3,24-26.7,47.5-59.2c32.1-44.5,48.4-78.8,48.4-102C276.4,81.5,230.8,35.9,174.8,35.9z M174.8,281.9
		c-28.5-32.9-86.2-107-86.2-144.4c0-47.5,38.7-86.2,86.2-86.2S261,90,261,137.5C261,174.8,203.3,249,174.8,281.9z"/>
	<circle class="st0" cx="174.8" cy="137.5" r="38.2"/>
</g>
</svg>
