<?xml version="1.0" encoding="utf-8"?>
<!-- Generator: Adobe Illustrator 25.2.1, SVG Export Plug-In . SVG Version: 6.00 Build 0)  -->
<svg version="1.1" id="Capa_1" xmlns="http://www.w3.org/2000/svg" xmlns:xlink="http://www.w3.org/1999/xlink" x="0px" y="0px"
	 viewBox="0 0 512 512" style="enable-background:new 0 0 512 512;" xml:space="preserve">
<style type="text/css">
	.st0{fill:#FFFFFF;stroke:#000000;stroke-miterlimit:10;}
</style>
<path class="st0" d="M402.2,149.3c0-27.5,21.8-49.8,48.8-49.8c-26.9,0-48.8-22.3-48.8-49.8c0,27.5-21.8,49.8-48.8,49.8
	C380.4,99.5,402.2,121.8,402.2,149.3z"/>
<path class="st0" d="M414.4,199c0,20.6-16.4,37.3-36.6,37.3c20.2,0,36.6,16.7,36.6,37.3c0-20.6,16.4-37.3,36.6-37.3
	C430.8,236.3,414.4,219.6,414.4,199z"/>
<path class="st0" d="M231.6,199c0-41.2,32.7-74.6,73.1-74.6c-40.4,0-73.1-33.4-73.1-74.6c0,41.2-32.7,74.6-73.1,74.6
	C198.9,124.4,231.6,157.8,231.6,199L231.6,199z"/>
<path class="st0" d="M329.1,124.4L61,398l48.8,49.8l268.1-273.6L329.1,124.4z M287.5,204.1L322,169l12.2,12.4l-34.5,35.2
	L287.5,204.1L287.5,204.1z"/>
</svg>
