<?xml version="1.0" encoding="utf-8"?>
<!-- Generator: Adobe Illustrator 25.2.1, SVG Export Plug-In . SVG Version: 6.00 Build 0)  -->
<svg version="1.1" id="Layer_1" xmlns="http://www.w3.org/2000/svg" xmlns:xlink="http://www.w3.org/1999/xlink" x="0px" y="0px"
	 viewBox="0 0 300.1 300.1" style="enable-background:new 0 0 300.1 300.1;" xml:space="preserve">
<style type="text/css">
	.st0{fill:#FFFFFF;stroke:#000000;stroke-miterlimit:10;}
</style>
<g>
	<g>
		<path class="st0" d="M250.6,43c-4.5-1.8-9.7-0.8-13.1,2.5l-17.5,16.9l-20.1-30.5c-2.2-3.4-6.1-5.4-10.2-5.4s-8,2-10.2,5.4
			l-20.1,30.5l-17.5-16.9c-3.4-3.3-8.6-4.3-13.1-2.5c-4.5,1.8-7.4,6.1-7.4,10.8v69.9c0,14.8,5.1,28.5,13.7,39.6l-91.9,88.8
			c-4.7,4.6-4.7,11.9,0,16.5c2.4,2.3,5.4,3.4,8.5,3.4c3.1,0,6.2-1.1,8.5-3.4l92.5-89.4c10.7,6.7,23.4,10.6,37,10.6c0,0,0,0,0,0
			c18.3,0,35.4-6.9,48.3-19.3c12.9-12.5,20-29.1,20-46.7V53.7C258,49,255.1,44.8,250.6,43z M233.9,123.7L233.9,123.7
			c0,11.4-4.6,22.2-13,30.2c-8.4,8.1-19.5,12.5-31.3,12.5c-6.9,0-13.5-1.6-19.4-4.3l14.2-13.7c0.9,0.1,1.9,0.2,2.8,0.2
			c11.1,0,20.1-8.7,20.1-19.4c0-10.7-9-19.4-20.1-19.4c-11.1,0-20.1,8.7-20.1,19.4c0,0.9,0.1,1.8,0.2,2.7l-15.1,14.6
			c-4.3-6.6-6.9-14.4-6.9-22.8V81.9l7.6,7.3c2.6,2.5,6.2,3.7,9.8,3.3c3.6-0.4,6.9-2.3,8.9-5.3l18-27.3l18,27.3c2,3,5.2,4.9,8.9,5.3
			c3.6,0.4,7.3-0.8,9.8-3.3l7.6-7.3L233.9,123.7L233.9,123.7z"/>
	</g>
</g>
</svg>
