<?xml version="1.0" encoding="utf-8"?>
<!-- Generator: Adobe Illustrator 26.1.0, SVG Export Plug-In . SVG Version: 6.00 Build 0)  -->
<svg version="1.1" id="Capa_1" xmlns="http://www.w3.org/2000/svg" xmlns:xlink="http://www.w3.org/1999/xlink" x="0px" y="0px"
	 viewBox="0 0 470 470" style="enable-background:new 0 0 470 470;" xml:space="preserve">
<style type="text/css">
	.st0{fill:#FFFFFF;}
</style>
<path class="st0" d="M114.6,101.3h35.9c5,0,9-3.6,9-8.1c0-4.5-4-8.1-9-8.1h-35.9c-5,0-9,3.6-9,8.1
	C105.6,97.7,109.6,101.3,114.6,101.3z"/>
<path class="st0" d="M258.8,85.1h-64.4c-5,0-9,3.6-9,8.1s4,8.1,9,8.1h64.4c5,0,9-3.6,9-8.1S263.7,85.1,258.8,85.1z"/>
<path class="st0" d="M191.5,141.4H91.2c-5,0-9,3.6-9,8.1c0,4.5,4,8.1,9,8.1h100.3c5,0,9-3.6,9-8.1
	C200.5,145.1,196.4,141.4,191.5,141.4z"/>
<path class="st0" d="M91.2,270.2h64.4c5,0,9-3.6,9-8.1s-4-8.1-9-8.1H91.2c-5,0-9,3.6-9,8.1S86.3,270.2,91.2,270.2z"/>
<path class="st0" d="M40.2,213.9h64.4c5,0,9-3.6,9-8.1c0-4.5-4-8.1-9-8.1H40.2c-5,0-9,3.6-9,8.1C31.2,210.3,35.3,213.9,40.2,213.9z"
	/>
<path class="st0" d="M168.3,197.7h-35.9c-5,0-9,3.6-9,8.1c0,4.5,4,8.1,9,8.1h35.9c5,0,9-3.6,9-8.1
	C177.3,201.3,173.2,197.7,168.3,197.7z"/>
<path class="st0" d="M195,381.8H58.8c-5,0-9,3.6-9,8.1s4,8.1,9,8.1H195c5,0,9-3.6,9-8.1S199.9,381.8,195,381.8z"/>
<path class="st0" d="M129.1,310.3H47.3c-4,0-7.3,3.6-7.3,8.1c0,4.5,3.3,8.1,7.3,8.1h81.7c4,0,7.3-3.6,7.3-8.1
	C136.4,313.9,133.1,310.3,129.1,310.3z"/>
<g transform="translate(-1)">
	<g>
		<g>
			<path class="st0" d="M425.6,117.6l-1-0.6c-9.8-5.7-22.4-2.3-28.1,7.5l-22.1,38.6c-1.2,2-3.7,2.8-5.8,1.7l-52.8-27.9
				c-5.1-2.7-11-3.4-16.7-1.9L236,151.7c-1.5,0.4-2.8,1.3-3.6,2.6l-40,64.9c-5.7,9.9-2.9,22.7,6.3,28.5c4.9,3.1,10.7,4,16.3,2.5
				l0.1,0c5.5-1.5,10.2-5.2,12.8-10.2l27.1-50l13.5-3.6l-62,121.8l-54.3,14.4c-12.9,3.4-20.9,15.9-18.3,28.3
				c1.4,6.5,5.2,12,10.9,15.5c5.6,3.4,12.4,4.4,18.7,2.8l81.1-21.5c1.6-0.4,3-1.5,3.7-3l29.8-55.4l44.6,27.3l7.3,70.2
				c0.3,11.9,8.7,21.8,19.9,23.6c3.5,0.6,6.9,0.4,10.2-0.5c3.5-0.9,6.8-2.7,9.6-5.1c5.4-4.7,8.4-11.6,8.1-19l-7.6-101.4
				c-0.2-2-1.3-3.7-3-4.7l-60.8-35.3l28.1-48.3l33.7,19.6c9.4,5.5,22.4,2,27.8-7.4l36.7-63.2c2.7-4.7,3.4-10.1,2.1-15.3
				C433.6,124.7,430.2,120.3,425.6,117.6z"/>
			<path class="st0" d="M362.3,136.8c19.2-5.1,30.6-24.8,25.5-44s-24.8-30.6-44-25.5c-19.2,5.1-30.6,24.8-25.5,44
				C323.4,130.4,343.1,141.9,362.3,136.8z"/>
		</g>
	</g>
</g>
</svg>
