<?xml version="1.0" encoding="utf-8"?>
<!-- Generator: Adobe Illustrator 26.1.0, SVG Export Plug-In . SVG Version: 6.00 Build 0)  -->
<svg version="1.1" id="Capa_1" xmlns="http://www.w3.org/2000/svg" xmlns:xlink="http://www.w3.org/1999/xlink" x="0px" y="0px"
	 viewBox="0 0 237.2 237.2" style="enable-background:new 0 0 237.2 237.2;" xml:space="preserve">
<style type="text/css">
	.st0{fill:#FFFFFF;}
</style>
<path class="st0" d="M69.7,226.2h155.6V70.5H69.7V226.2z M83.2,84.1h128.6v128.6H83.2V84.1z M154.8,90.8h13.5v77.3H91v-13.5h63.7
	L154.8,90.8L154.8,90.8z M64,168.1H12.7V12.5h155.6v51.3h-13.5V26H26.3v128.6H64V168.1L64,168.1z"/>
<rect x="0.9" class="st0" width="36.2" height="36.2"/>
<rect x="143.8" y="2" class="st0" width="36.2" height="36.2"/>
<rect x="1.8" y="142.2" class="st0" width="36.2" height="36.2"/>
<rect x="141.8" y="142.2" class="st0" width="36.2" height="36.2"/>
<rect x="58.2" y="60.6" class="st0" width="36.2" height="36.2"/>
<rect x="200.2" y="59" class="st0" width="36.2" height="36.2"/>
<rect x="58.2" y="201" class="st0" width="36.2" height="36.2"/>
<rect x="199.7" y="200.6" class="st0" width="36.2" height="36.2"/>
</svg>
