<?xml version="1.0" encoding="utf-8"?>
<!-- Generator: Adobe Illustrator 27.0.1, SVG Export Plug-In . SVG Version: 6.00 Build 0)  -->
<svg version="1.1" id="Layer_1" xmlns="http://www.w3.org/2000/svg" xmlns:xlink="http://www.w3.org/1999/xlink" x="0px" y="0px"
	 viewBox="0 0 512 512" style="enable-background:new 0 0 512 512;" xml:space="preserve">
<style type="text/css">
	.st0{fill:#FFFFFF;}
</style>
<g>
	<g>
		<path class="st0" d="M164.4,391.6l-75.8-76L355.8,48.1l75.8,76L164.4,391.6L164.4,391.6z M70.2,354.2l55.8,55.9l-77.6,21.8
			L70.2,354.2L70.2,354.2z M474.1,110L369.9,5.7c-7.5-7.5-20.8-7.5-28.4,0L46.1,301.6c-2.5,2.5-4.2,5.4-5.1,8.8L0.1,455.5
			c-1.9,7,0,14.5,5.1,19.6c3.8,3.8,11.5,6.5,19.6,5.1l144.9-40.8c3.4-0.9,6.3-2.7,8.8-5.1L474,138.4C482,130.4,482,117.7,474.1,110
			L474.1,110z"/>
	</g>
</g>
<g>
	<g>
		<path class="st0" d="M507.2,211.5L507.2,211.5c-6.1-6.1-18.9,0.3-25,6.4c0,0-229.6,231.3-227.6,235.3L133,486
			c-9.1,6.4-6.6,16.5-6.6,16.5c4.5,8.2,10.9,9.8,16,9.8L260.1,479c2.7-0.7,5.1-2.2,7.1-4.1l240-240.3
			C513.6,228.1,513.6,217.9,507.2,211.5L507.2,211.5z"/>
	</g>
</g>
</svg>
