<?xml version="1.0" encoding="utf-8"?>
<!-- Generator: Adobe Illustrator 27.0.1, SVG Export Plug-In . SVG Version: 6.00 Build 0)  -->
<svg version="1.1" id="Layer_1" xmlns="http://www.w3.org/2000/svg" xmlns:xlink="http://www.w3.org/1999/xlink" x="0px" y="0px"
	 viewBox="0 0 595.3 841.9" style="enable-background:new 0 0 595.3 841.9;" xml:space="preserve">
<style type="text/css">
	.st0{fill:none;stroke:#FFFFFF;stroke-width:2;stroke-miterlimit:10;}
	.st1{fill:#B2B2B2;stroke:#FFFFFF;stroke-width:2;stroke-miterlimit:10;}
	.st2{fill:#878787;stroke:#FFFFFF;stroke-width:2;stroke-miterlimit:10;}
	.st3{fill:#9D9D9C;stroke:#FFFFFF;stroke-width:2;stroke-miterlimit:10;}
	.st4{fill:#FFFFFF;stroke:#000000;stroke-miterlimit:10;}
	.st5{fill:#706F6F;stroke:#FFFFFF;stroke-miterlimit:10;}
	.st6{fill:#FFFFFF;stroke:#FFFFFF;stroke-miterlimit:10;}
	.st7{fill:#FFFFFF;stroke:#FFFFFF;stroke-width:8;stroke-miterlimit:10;}
	.st8{fill:#FFFFFF;}
	.st9{font-family:'Arial-Black';}
	.st10{font-size:18px;}
	.st11{stroke:#FFFFFF;stroke-width:2;stroke-miterlimit:10;}
</style>
<g>
	<line class="st0" x1="202.3" y1="482.1" x2="212.9" y2="478.1"/>
	<line class="st0" x1="219.4" y1="475.5" x2="230" y2="471.5"/>
	<line class="st0" x1="236.4" y1="469" x2="247" y2="464.9"/>
	<line class="st0" x1="254.5" y1="462" x2="265.1" y2="457.9"/>
	<line class="st0" x1="271.5" y1="455.5" x2="282.1" y2="451.4"/>
	<line class="st0" x1="291.3" y1="447.8" x2="301.9" y2="443.7"/>
	<line class="st0" x1="308.3" y1="441.3" x2="318.9" y2="437.2"/>
	<line class="st0" x1="326.4" y1="434.2" x2="337" y2="430.2"/>
	<line class="st0" x1="343.4" y1="427.7" x2="354" y2="423.6"/>
	<line class="st0" x1="360.5" y1="421.1" x2="371.1" y2="417"/>
	<line class="st0" x1="377.4" y1="414.6" x2="388" y2="410.5"/>
	<line class="st0" x1="395.6" y1="407.6" x2="406.2" y2="403.5"/>
	<line class="st0" x1="412.5" y1="401" x2="423.1" y2="396.9"/>
	<line class="st0" x1="428.5" y1="394.8" x2="439.1" y2="390.8"/>
	<line class="st0" x1="445.5" y1="388.3" x2="456.1" y2="384.2"/>
	<line class="st0" x1="463.6" y1="381.3" x2="474.2" y2="377.2"/>
	<line class="st0" x1="480.6" y1="374.8" x2="491.2" y2="370.7"/>
	<line class="st0" x1="497.7" y1="368.2" x2="508.3" y2="364.1"/>
	<line class="st0" x1="514.6" y1="361.6" x2="525.2" y2="357.5"/>
	<line class="st0" x1="532.8" y1="354.6" x2="543.4" y2="350.5"/>
	<line class="st0" x1="549.7" y1="348.1" x2="560.3" y2="344"/>
</g>
<g>
	<line class="st0" x1="180.5" y1="462" x2="191" y2="458"/>
	<line class="st0" x1="197.6" y1="455.4" x2="208.1" y2="451.4"/>
	<line class="st0" x1="214.5" y1="448.9" x2="225.1" y2="444.8"/>
	<line class="st0" x1="232.7" y1="441.9" x2="243.2" y2="437.8"/>
	<line class="st0" x1="249.6" y1="435.4" x2="260.2" y2="431.3"/>
	<line class="st0" x1="269.5" y1="427.7" x2="280" y2="423.6"/>
	<line class="st0" x1="286.4" y1="421.2" x2="297" y2="417.1"/>
	<line class="st0" x1="304.6" y1="414.2" x2="315.1" y2="410.1"/>
	<line class="st0" x1="321.5" y1="407.6" x2="332.1" y2="403.5"/>
	<line class="st0" x1="338.6" y1="401" x2="349.2" y2="396.9"/>
	<line class="st0" x1="355.6" y1="394.5" x2="366.1" y2="390.4"/>
	<line class="st0" x1="373.7" y1="387.5" x2="384.3" y2="383.4"/>
	<line class="st0" x1="390.7" y1="380.9" x2="401.2" y2="376.8"/>
	<line class="st0" x1="406.7" y1="374.7" x2="417.2" y2="370.7"/>
	<line class="st0" x1="423.6" y1="368.2" x2="434.2" y2="364.1"/>
	<line class="st0" x1="441.8" y1="361.2" x2="452.3" y2="357.1"/>
	<line class="st0" x1="458.7" y1="354.7" x2="469.3" y2="350.6"/>
	<line class="st0" x1="475.8" y1="348.1" x2="486.4" y2="344"/>
	<line class="st0" x1="492.8" y1="341.5" x2="503.3" y2="337.4"/>
	<line class="st0" x1="510.9" y1="334.5" x2="521.5" y2="330.4"/>
	<line class="st0" x1="527.9" y1="328" x2="538.4" y2="323.9"/>
</g>
<g>
	<line class="st0" x1="157.1" y1="439.3" x2="167.7" y2="435.2"/>
	<line class="st0" x1="174.2" y1="432.7" x2="184.8" y2="428.6"/>
	<line class="st0" x1="191.1" y1="426.1" x2="201.7" y2="422.1"/>
	<line class="st0" x1="209.3" y1="419.1" x2="219.9" y2="415.1"/>
	<line class="st0" x1="226.2" y1="412.6" x2="236.8" y2="408.5"/>
	<line class="st0" x1="246.1" y1="404.9" x2="256.7" y2="400.9"/>
	<line class="st0" x1="263" y1="398.4" x2="273.6" y2="394.3"/>
	<line class="st0" x1="281.2" y1="391.4" x2="291.8" y2="387.3"/>
	<line class="st0" x1="298.1" y1="384.9" x2="308.7" y2="380.8"/>
	<line class="st0" x1="315.2" y1="378.3" x2="325.8" y2="374.2"/>
	<line class="st0" x1="332.2" y1="371.7" x2="342.8" y2="367.6"/>
	<line class="st0" x1="350.3" y1="364.7" x2="360.9" y2="360.6"/>
	<line class="st0" x1="367.3" y1="358.2" x2="377.9" y2="354.1"/>
	<line class="st0" x1="383.3" y1="352" x2="393.9" y2="347.9"/>
	<line class="st0" x1="400.2" y1="345.5" x2="410.8" y2="341.4"/>
	<line class="st0" x1="418.4" y1="338.4" x2="429" y2="334.4"/>
	<line class="st0" x1="435.3" y1="331.9" x2="445.9" y2="327.8"/>
	<line class="st0" x1="452.4" y1="325.3" x2="463" y2="321.2"/>
	<line class="st0" x1="469.4" y1="318.8" x2="480" y2="314.7"/>
	<line class="st0" x1="487.5" y1="311.8" x2="498.1" y2="307.7"/>
	<line class="st0" x1="504.5" y1="305.2" x2="515.1" y2="301.1"/>
</g>
<path class="st1" d="M452.8,159.4v207.2c3,4.7,5.9,9.4,8.9,14.2c2.8-4.7,5.6-9.5,8.4-14.2c0-69.1-0.1-138.1-0.1-207.2H452.8z"/>
<path class="st2" d="M405.5,118.3v207.2c3,4.7,5.9,9.4,8.9,14.2c2.8-4.7,5.6-9.5,8.4-14.2c0-69.1-0.1-138.1-0.1-207.2H405.5z"/>
<path class="st3" d="M268.5,202.8v207.2c3,4.7,5.9,9.4,8.9,14.2c2.8-4.7,5.6-9.5,8.4-14.2c0-69.1-0.1-138.1-0.1-207.2H268.5z"/>
<path class="st2" d="M182.7,204v207.2c3,4.7,5.9,9.4,8.9,14.2c2.8-4.7,5.6-9.5,8.4-14.2c0-69.1-0.1-138.1-0.1-207.2H182.7z"/>
<path class="st1" d="M224.9,247.3v207.2c3,4.7,5.9,9.4,8.9,14.2c2.8-4.7,5.6-9.5,8.4-14.2c0-69.1-0.1-138.1-0.1-207.2H224.9z"/>
<path class="st4" d="M492.3,188c-85.4,33.3-170.7,66.7-256.1,100c-22-23.6-43.9-47.2-65.9-70.7c83.7-32.5,167.5-65,251.2-97.6
	C445.2,142.4,468.7,165.2,492.3,188z"/>
<path class="st5" d="M491.8,170c-85.4,33.3-170.7,66.7-256.1,100c-22-23.6-43.9-47.2-65.9-70.7c83.7-32.5,167.5-65,251.2-97.6
	C444.6,124.5,468.2,147.3,491.8,170z"/>
<polygon class="st5" points="169.8,199.3 170.4,217.2 236.2,288 492.3,188 491.8,170 235.7,270 "/>
<line class="st6" x1="235.7" y1="270" x2="236.2" y2="288"/>
<rect x="327.4" y="182.6" class="st7" width="6.7" height="6.7"/>
<text transform="matrix(1 0 0 1 294.6851 174.7611)" class="st8 st9 st10">Center</text>
<line class="st0" x1="517.4" y1="110.6" x2="330.8" y2="187.1"/>
<line class="st11" x1="516.6" y1="110.6" x2="508.1" y2="119.9"/>
<line class="st11" x1="517.4" y1="110.9" x2="504.8" y2="110.2"/>
<text transform="matrix(1 0 0 1 481.0381 105.0947)" class="st8 st9 st10">x-stack</text>
<g>
	<line class="st0" x1="424.1" y1="289.6" x2="331.3" y2="187.1"/>
	<line class="st0" x1="423.8" y1="289.9" x2="414.1" y2="285.3"/>
	<line class="st0" x1="424.4" y1="289.3" x2="420.9" y2="279.2"/>
</g>
<text transform="matrix(1 0 0 1 429.5918 279.0103)" class="st8 st9 st10">y-stack</text>
<text transform="matrix(0.9258 -0.3781 0.3781 0.9258 99.2159 470.1653)" class="st8 st9 st10">Line 1</text>
<text transform="matrix(0.9258 -0.3781 0.3781 0.9258 118.2317 494.5603)" class="st8 st9 st10">Line 2</text>
<text transform="matrix(0.9258 -0.3781 0.3781 0.9258 135.3618 518.2956)" class="st8 st9 st10">Line 3</text>
<text transform="matrix(1 0 0 1 186.0464 212.2686)" class="st8 st9 st10">1</text>
<text transform="matrix(1 0 0 1 409.0449 125.6211)" class="st8 st9 st10">2</text>
<text transform="matrix(1 0 0 1 272.0151 214.3599)" class="st8 st9 st10">3</text>
<text transform="matrix(1 0 0 1 228.5762 256.1377)" class="st8 st9 st10">4</text>
<text transform="matrix(1 0 0 1 456.4092 171.4077)" class="st8 st9 st10">5</text>
</svg>
