<?xml version="1.0" encoding="utf-8"?>
<!-- Generator: Adobe Illustrator 26.2.1, SVG Export Plug-In . SVG Version: 6.00 Build 0)  -->
<svg version="1.1" id="Layer_1" xmlns="http://www.w3.org/2000/svg" xmlns:xlink="http://www.w3.org/1999/xlink" x="0px" y="0px"
	 viewBox="0 0 24 24" style="enable-background:new 0 0 24 24;" xml:space="preserve">
<style type="text/css">
	.st0{fill:#FFFFFF;}
</style>
<path class="st0" d="M14.8,20h-5c-1.8,0-5.2-0.9-5.2-4.4s3.4-4.4,5.2-4.4h4.4c0.1,0,3.7-0.1,3.7-2.9s-3.6-2.9-3.7-2.9h-5
	C9,5.6,8.8,5.5,8.7,5.3C8.5,5.2,8.5,5,8.5,4.8c0-0.2,0.1-0.4,0.2-0.5C8.8,4.1,9,4.1,9.2,4.1h5c1.8,0,5.2,0.9,5.2,4.4
	s-3.4,4.4-5.2,4.4H9.8c-0.1,0-3.7,0.1-3.7,2.9s3.6,2.9,3.7,2.9h5c0.2,0,0.4,0.1,0.5,0.2c0.1,0.1,0.2,0.3,0.2,0.5s-0.1,0.4-0.2,0.5
	C15.2,19.9,15,20,14.8,20z"/>
<path class="st0" d="M6.4,8.3c-0.7,0-1.4-0.2-2-0.6c-0.6-0.4-1-0.9-1.3-1.6C2.9,5.5,2.9,4.8,3,4.1c0.1-0.7,0.5-1.3,1-1.8
	c0.5-0.5,1.1-0.8,1.8-1c0.7-0.1,1.4-0.1,2,0.2C8.5,1.8,9,2.2,9.4,2.8c0.4,0.6,0.6,1.3,0.6,2c0,0.5-0.1,0.9-0.3,1.4
	C9.5,6.6,9.3,7,9,7.3C8.6,7.6,8.2,7.9,7.8,8C7.4,8.2,6.9,8.3,6.4,8.3z M6.4,2.8C6,2.8,5.7,2.9,5.3,3.1C5,3.3,4.7,3.6,4.6,4
	C4.4,4.4,4.4,4.8,4.5,5.1c0.1,0.4,0.3,0.7,0.5,1c0.3,0.3,0.6,0.5,1,0.5c0.4,0.1,0.8,0,1.2-0.1c0.4-0.2,0.7-0.4,0.9-0.7
	c0.2-0.3,0.3-0.7,0.3-1.1c0-0.3-0.1-0.5-0.2-0.8C8.2,3.7,8,3.5,7.9,3.3C7.7,3.2,7.4,3,7.2,2.9C7,2.8,6.7,2.8,6.4,2.8z"/>
<path class="st0" d="M17.6,22.8c-0.7,0-1.4-0.2-2-0.6c-0.6-0.4-1-0.9-1.3-1.6c-0.3-0.6-0.3-1.4-0.2-2c0.1-0.7,0.5-1.3,1-1.8
	c0.5-0.5,1.1-0.8,1.8-1c0.7-0.1,1.4-0.1,2,0.2c0.6,0.3,1.2,0.7,1.6,1.3s0.6,1.3,0.6,2c0,0.9-0.4,1.8-1,2.5
	C19.4,22.4,18.5,22.7,17.6,22.8z M17.6,17.2c-0.4,0-0.8,0.1-1.1,0.3c-0.3,0.2-0.6,0.5-0.7,0.9c-0.2,0.4-0.2,0.8-0.1,1.2
	c0.1,0.4,0.3,0.7,0.5,1c0.3,0.3,0.6,0.5,1,0.5c0.4,0.1,0.8,0,1.2-0.1c0.4-0.2,0.7-0.4,0.9-0.7c0.2-0.3,0.3-0.7,0.3-1.1
	c0-0.5-0.2-1-0.6-1.4C18.6,17.4,18.1,17.2,17.6,17.2z"/>
</svg>
