<?xml version="1.0" encoding="utf-8"?>
<!-- Generator: Adobe Illustrator 26.2.1, SVG Export Plug-In . SVG Version: 6.00 Build 0)  -->
<svg version="1.1" id="Layer_1" xmlns="http://www.w3.org/2000/svg" xmlns:xlink="http://www.w3.org/1999/xlink" x="0px" y="0px"
	 viewBox="0 0 24 24" style="enable-background:new 0 0 24 24;" xml:space="preserve">
<style type="text/css">
	.st0{fill:none;stroke:#FFFFFF;stroke-linecap:round;stroke-miterlimit:10;}
</style>
<g>
	<rect x="0.5" y="0.5" class="st0" width="23" height="22.9"/>
	<rect x="5.8" y="6" class="st0" width="12.3" height="12.2"/>
	<line class="st0" x1="0.5" y1="0.8" x2="5.8" y2="6"/>
	<line class="st0" x1="18.1" y1="18.3" x2="23.3" y2="23.4"/>
	<line class="st0" x1="23.3" y1="19" x2="18.1" y2="13.9"/>
	<line class="st0" x1="10.4" y1="6" x2="5.2" y2="0.8"/>
	<line class="st0" x1="9.9" y1="0.8" x2="15.2" y2="6"/>
	<line class="st0" x1="18.1" y1="8.9" x2="23.4" y2="14.1"/>
	<line class="st0" x1="23.5" y1="9" x2="14.9" y2="0.8"/>
	<line class="st0" x1="23.3" y1="3.8" x2="20" y2="0.8"/>
	<line class="st0" x1="5.8" y1="11.4" x2="0.5" y2="5.7"/>
	<line class="st0" x1="12.5" y1="18.3" x2="17.3" y2="23.4"/>
	<line class="st0" x1="11.5" y1="23.4" x2="6.9" y2="18.3"/>
	<line class="st0" x1="5.8" y1="17.1" x2="0.5" y2="11.3"/>
	<line class="st0" x1="0.5" y1="16.9" x2="6" y2="23.4"/>
	<line class="st0" x1="1.9" y1="23.4" x2="0.5" y2="21.8"/>
</g>
</svg>
