<?xml version="1.0" encoding="utf-8"?>
<!-- Generator: Adobe Illustrator 25.2.1, SVG Export Plug-In . SVG Version: 6.00 Build 0)  -->
<svg version="1.1" id="Layer_1" xmlns="http://www.w3.org/2000/svg" xmlns:xlink="http://www.w3.org/1999/xlink" x="0px" y="0px"
	 viewBox="0 0 469.3 469.3" style="enable-background:new 0 0 469.3 469.3;" xml:space="preserve">
<style type="text/css">
	.st0{fill:#FFFFFF;stroke:#000000;stroke-miterlimit:10;}
</style>
<g>
	<g>
		<path class="st0" d="M402.1,110.8l-48.2-50.1c-12.1-12.6-33.3-12.7-45.5,0L92.4,287.1c-1,1-1.7,2.3-2,3.6L58.2,407.4
			c-0.8,2.9,0,6,2,8.2c1.5,1.6,3.6,2.4,5.7,2.4c0.8,0,1.5-0.1,2.2-0.3l112.5-33.4c1.3-0.4,2.5-1.1,3.5-2.1l218-224.3
			c6.1-6.3,9.4-14.7,9.4-23.6C411.4,125.4,408.2,117,402.1,110.8z M273.4,121.3l29.6,30.7L148.5,312.3l-11.1-23
			c-1.4-2.8-4.1-4.6-7.2-4.6h-13L273.4,121.3z M77.7,397.6l10.5-38l26.1,27.1L77.7,397.6z M170.4,370.2L132,381.6l-38.8-40.3
			l11-39.9h21.1l13.9,28.8c0.8,1.6,2,2.9,3.6,3.8l27.7,14.4L170.4,370.2L170.4,370.2z M186.5,356.4V343c0-3.1-1.7-6-4.4-7.4
			l-22.1-11.5l154.4-160.2l29.6,30.7L186.5,356.4z M390.8,146.4l-35.4,36.4l-70.7-73.2l35.1-36.7c6.1-6.3,16.7-6.3,22.8,0l48.2,50
			c3,3.1,4.7,7.3,4.7,11.8C395.4,139.1,393.8,143.2,390.8,146.4z"/>
	</g>
</g>
</svg>
