<?xml version="1.0" encoding="utf-8"?>
<!-- Generator: Adobe Illustrator 26.1.0, SVG Export Plug-In . SVG Version: 6.00 Build 0)  -->
<svg version="1.1" id="Capa_1" xmlns="http://www.w3.org/2000/svg" xmlns:xlink="http://www.w3.org/1999/xlink" x="0px" y="0px"
	 viewBox="0 0 98.7 98.7" style="enable-background:new 0 0 98.7 98.7;" xml:space="preserve">
<style type="text/css">
	.st0{fill:#FFFFFF;}
</style>
<g>
	<g>
		<path class="st0" d="M80.6,43.2c-0.1,0.5-0.6,1-1.1,1.1c-0.1,0-0.3,0.1-0.4,0.1c-0.4,0-0.8-0.2-1.1-0.5L68,34
			c-0.4-0.4-0.6-1-0.4-1.5c0.1-0.5,0.6-1,1.1-1.1l1.4-0.4c-3.6-4.3-9-6.9-14.6-7c-0.9,0-1.5-0.7-1.5-1.6v-6.2c0-0.4,0.2-0.8,0.5-1.1
			s0.7-0.4,1.1-0.5c10,0.1,19,5.3,24.2,13.7l2.5-0.7c0.5-0.1,1.1,0,1.5,0.4c0.4,0.4,0.6,1,0.4,1.5L80.6,43.2z"/>
		<path class="st0" d="M5.2,7v66c0,1,0.8,1.8,1.8,1.8h16.8l0,16.7c0,0.1,0,0.2,0,0.3c0,1,0.8,1.8,1.8,1.8c0,0,0,0,0,0h66
			c1,0,1.8-0.8,1.8-1.8V50.1c0-1-0.8-1.8-1.8-1.8H50.5V7c0-1-0.8-1.8-1.8-1.8H7C6,5.2,5.2,6,5.2,7z M31.8,85.6V56.3h53.6v29.3
			C85.4,85.6,31.8,85.6,31.8,85.6z M23.8,50.1v16.7H13.2V13.2h29.3v35.1H25.6C24.6,48.3,23.8,49.1,23.8,50.1z"/>
	</g>
</g>
</svg>
