<?xml version="1.0" encoding="utf-8"?>
<!-- Generator: Adobe Illustrator 26.1.0, SVG Export Plug-In . SVG Version: 6.00 Build 0)  -->
<svg version="1.1" id="Capa_1" xmlns="http://www.w3.org/2000/svg" xmlns:xlink="http://www.w3.org/1999/xlink" x="0px" y="0px"
	 viewBox="0 0 98.7 98.7" style="enable-background:new 0 0 98.7 98.7;" xml:space="preserve">
<style type="text/css">
	.st0{fill:#FFFFFF;}
</style>
<g>
	<g>
		<path class="st0" d="M14.4,29.5c-0.2-0.5,0-1.1,0.4-1.5s1-0.5,1.5-0.4l2.5,0.7C24,19.9,33,14.7,43,14.6c0.4,0.1,0.8,0.2,1.1,0.5
			s0.5,0.7,0.5,1.1v6.2c0,0.9-0.6,1.6-1.5,1.6c-5.6,0.1-11,2.7-14.6,7l1.4,0.4c0.5,0.1,1,0.6,1.1,1.1c0.2,0.5,0,1.1-0.4,1.5l-10,9.9
			c-0.3,0.3-0.7,0.5-1.1,0.5c-0.1,0-0.3-0.1-0.4-0.1c-0.5-0.1-1-0.6-1.1-1.1L14.4,29.5z"/>
		<path class="st0" d="M91.6,5.2H49.9c-1,0-1.8,0.8-1.8,1.8v41.3H7c-1,0-1.8,0.8-1.8,1.8v41.7c0,1,0.8,1.8,1.8,1.8h66l0,0
			c1,0,1.8-0.8,1.8-1.8c0-0.1,0-0.2,0-0.3V74.8h16.8c1,0,1.8-0.8,1.8-1.8V7C93.4,6,92.6,5.2,91.6,5.2z M13.2,85.6V56.3h53.6v29.3
			C66.8,85.6,13.2,85.6,13.2,85.6z M73,48.3H56.1V13.2h29.3v53.6H74.8V50.1C74.8,49.1,74,48.3,73,48.3z"/>
	</g>
</g>
</svg>
