<?xml version="1.0" encoding="utf-8"?>
<!-- Generator: Adobe Illustrator 25.4.1, SVG Export Plug-In . SVG Version: 6.00 Build 0)  -->
<svg version="1.1" id="Capa_1" xmlns="http://www.w3.org/2000/svg" xmlns:xlink="http://www.w3.org/1999/xlink" x="0px" y="0px"
	 viewBox="0 0 52 52" style="enable-background:new 0 0 52 52;" xml:space="preserve">
<style type="text/css">
	.st0{fill:#FFFFFF;stroke:#FFFFFF;stroke-width:2;stroke-miterlimit:10;}
</style>
<path class="st0" d="M10,22.49c-0.14-0.12-0.22-0.29-0.21-0.47c0.59-7.35,7.88-13.12,16.6-13.14c4.41-0.01,8.56,1.42,11.68,4.04
	c0.02,0.02,0.04,0.03,0.06,0.05c3.12,2.64,4.83,6.16,4.82,9.9c0,0.34-0.33,0.61-0.73,0.61c-0.4,0-0.72-0.27-0.72-0.61
	c0.01-3.42-1.56-6.63-4.41-9.04c-0.02-0.02-0.04-0.03-0.05-0.05c-2.85-2.39-6.63-3.7-10.66-3.69c-7.96,0.02-14.61,5.29-15.15,12
	c-0.03,0.33-0.37,0.59-0.77,0.57C10.28,22.65,10.12,22.59,10,22.49z"/>
<path class="st0" d="M15.74,39.53c-0.3-0.22-0.34-0.6-0.09-0.85c0.26-0.25,0.72-0.28,1.02-0.06c0.35,0.25,0.72,0.5,1.1,0.72
	c0.32,0.2,0.41,0.58,0.19,0.85c-0.23,0.27-0.68,0.33-1.01,0.14C16.54,40.08,16.13,39.81,15.74,39.53
	C15.74,39.53,15.74,39.53,15.74,39.53z M13.68,37.77c-0.03-0.02-0.06-0.05-0.09-0.07c-0.32-0.33-0.63-0.68-0.92-1.03
	c-0.23-0.28-0.15-0.66,0.18-0.84s0.78-0.11,1.01,0.17c0.26,0.32,0.55,0.64,0.84,0.94c0.26,0.26,0.22,0.65-0.09,0.85
	C14.35,37.98,13.95,37.97,13.68,37.77z M19.43,41.53c-0.24-0.18-0.33-0.47-0.19-0.72c0.16-0.3,0.59-0.43,0.96-0.29
	c0.42,0.17,0.85,0.32,1.29,0.45c0.38,0.12,0.58,0.47,0.45,0.78c-0.13,0.32-0.54,0.48-0.92,0.36c-0.48-0.15-0.96-0.31-1.42-0.5
	C19.54,41.6,19.48,41.57,19.43,41.53z M11.37,34.65c-0.08-0.06-0.15-0.13-0.19-0.22c-0.21-0.39-0.4-0.79-0.56-1.19
	c-0.13-0.32,0.07-0.66,0.45-0.76c0.38-0.1,0.79,0.07,0.92,0.4c0.15,0.37,0.32,0.73,0.51,1.09c0.17,0.31,0,0.67-0.36,0.8
	C11.88,34.85,11.58,34.8,11.37,34.65z M23.6,42.64c-0.18-0.14-0.29-0.34-0.25-0.56c0.06-0.33,0.43-0.55,0.82-0.5
	c0.45,0.06,0.92,0.11,1.38,0.14c0.4,0.03,0.71,0.32,0.69,0.65c-0.02,0.33-0.36,0.59-0.76,0.56c-0.51-0.03-1.01-0.08-1.51-0.16
	C23.83,42.76,23.7,42.71,23.6,42.64z M10.13,31.13c-0.13-0.09-0.22-0.22-0.25-0.38c-0.06-0.35-0.11-0.7-0.15-1.06
	c-0.03-0.34,0.27-0.62,0.67-0.64c0.4-0.02,0.75,0.24,0.78,0.57c0.03,0.33,0.08,0.65,0.13,0.97c0.06,0.33-0.21,0.64-0.61,0.68
	C10.5,31.31,10.29,31.25,10.13,31.13z M27.95,42.75c-0.13-0.1-0.22-0.23-0.25-0.39c-0.05-0.33,0.23-0.63,0.63-0.67
	c0.46-0.04,0.92-0.1,1.37-0.17c0.39-0.06,0.78,0.15,0.87,0.48c0.09,0.33-0.16,0.65-0.55,0.72c-0.49,0.08-0.99,0.15-1.5,0.19
	C28.31,42.92,28.1,42.86,27.95,42.75z M32.15,41.88c-0.08-0.06-0.15-0.14-0.2-0.23c-0.16-0.31,0.01-0.67,0.38-0.79
	c0.42-0.14,0.84-0.3,1.25-0.48c0.35-0.15,0.79-0.03,0.99,0.26c0.19,0.3,0.06,0.67-0.29,0.82c-0.44,0.19-0.91,0.37-1.37,0.53
	C32.64,42.08,32.35,42.03,32.15,41.88z M35.87,40.08c-0.03-0.02-0.07-0.05-0.09-0.08c-0.25-0.27-0.2-0.65,0.11-0.85
	c0.36-0.24,0.71-0.49,1.04-0.75c0.29-0.23,0.75-0.22,1.03,0.03c0.28,0.25,0.27,0.63-0.01,0.86c-0.36,0.29-0.74,0.56-1.14,0.82
	C36.52,40.29,36.13,40.27,35.87,40.08z M38.84,37.48c-0.28-0.21-0.34-0.56-0.12-0.82c0.27-0.31,0.52-0.63,0.75-0.96
	c0.2-0.29,0.65-0.37,0.99-0.2c0.35,0.18,0.46,0.55,0.26,0.84c-0.25,0.36-0.53,0.71-0.82,1.05c-0.23,0.27-0.69,0.32-1.01,0.12
	C38.88,37.51,38.86,37.49,38.84,37.48z M40.86,34.3c-0.22-0.16-0.32-0.43-0.21-0.67c0.16-0.36,0.3-0.73,0.41-1.1
	c0.1-0.32,0.5-0.51,0.89-0.42c0.39,0.09,0.62,0.43,0.52,0.75c-0.13,0.41-0.28,0.81-0.45,1.2c-0.14,0.31-0.55,0.47-0.93,0.35
	C41,34.39,40.93,34.35,40.86,34.3z M41.77,30.76c-0.17-0.13-0.27-0.31-0.25-0.51c0.03-0.38,0.05-0.77,0.04-1.16
	c-0.01-0.34,0.31-0.61,0.72-0.6c0.4,0,0.73,0.28,0.74,0.61c0.01,0.42-0.01,0.85-0.05,1.27c-0.03,0.33-0.38,0.58-0.78,0.54
	C42.03,30.9,41.89,30.85,41.77,30.76z"/>
<path class="st0" d="M41.71,23.3l-4.6-3.86c-0.28-0.24-0.28-0.62,0-0.86s0.74-0.24,1.02,0l4.6,3.86c0.28,0.24,0.28,0.62,0,0.86
	C42.45,23.54,41.99,23.54,41.71,23.3z"/>
<path class="st0" d="M41.71,23.3c-0.28-0.24-0.28-0.62,0-0.86l4.11-3.45c0.28-0.24,0.74-0.24,1.02,0c0.28,0.24,0.28,0.62,0,0.86
	l-4.11,3.45C42.45,23.54,41.99,23.54,41.71,23.3z"/>
<path class="st0" d="M9.82,23.88l-4.6-3.86c-0.28-0.24-0.28-0.62,0-0.86c0.28-0.24,0.74-0.24,1.02,0l4.6,3.86
	c0.28,0.24,0.28,0.62,0,0.86S10.1,24.12,9.82,23.88z"/>
<path class="st0" d="M9.82,23.88c-0.28-0.24-0.28-0.62,0-0.86l4.11-3.45c0.28-0.24,0.74-0.24,1.02,0c0.28,0.24,0.28,0.62,0,0.86
	l-4.11,3.45C10.56,24.12,10.1,24.12,9.82,23.88z"/>
</svg>
