<?xml version="1.0" encoding="utf-8"?>
<!-- Generator: Adobe Illustrator 26.2.1, SVG Export Plug-In . SVG Version: 6.00 Build 0)  -->
<svg version="1.1" id="Layer_1" xmlns="http://www.w3.org/2000/svg" xmlns:xlink="http://www.w3.org/1999/xlink" x="0px" y="0px"
	 viewBox="0 0 488 488" style="enable-background:new 0 0 488 488;" xml:space="preserve">
<style type="text/css">
	.st0{fill:#FFFFFF;}
</style>
<g transform="translate(0 -540.36)">
	<g>
		<g>
			<path class="st0" d="M159.5,879c-10.3-9-26.5-8.8-36,0.2c-5.2,5-7.9,11.3-7.8,18.1c0.2,6.3,2.9,12.2,7.8,16.5
				c4.5,4.7,10.6,7.3,17.3,7.4c0.2,0,0.4,0,0.6,0l0,0c6.8,0,13.3-2.6,18.4-7.3c9.5-9.1,9.6-24.5,0.3-34.4
				C160,879.3,159.7,879.2,159.5,879z M147.7,902.4c-1.9,1.7-4.2,2.6-6.5,2.6c-1.5-0.1-3.5-0.5-5.3-2.4c-0.2-0.2-0.4-0.4-0.6-0.6
				c-2-1.6-2.5-3.7-2.5-5.1c-0.1-2.3,0.9-4.5,2.7-6.2c1.5-1.4,3.7-2.1,5.8-2.1c2.2,0,4.5,0.7,6.3,2.2
				C150.7,894.3,150.7,899.6,147.7,902.4z"/>
			<path class="st0" d="M460.1,682.9l-95-90.9c-3.3-3.2-8.7-3.2-12,0L48.4,883.3c-3.3,3.2-3.3,8.3,0,11.5l95,90.9
				c1.6,1.6,3.8,2.4,6.1,2.4s4.4-0.9,6.1-2.4l304.6-291.3C463.5,691.3,463.5,686.1,460.1,682.9z M414.6,714.9L414.6,714.9
				l-41.8-39.4c-3.3-3.2-8.8-3.1-12,0.1c-3.3,3.2-3.2,8.4,0.1,11.5l41.8,39.4L384.1,744l-19.6-18.8c-3.3-3.2-8.7-3.2-12,0
				c-3.3,3.2-3.3,8.3,0,11.5l19.6,18.8l-18.2,17.4l-41.5-39.6c-3.3-3.2-8.7-3.2-12,0c-3.3,3.2-3.3,8.3,0,11.5l41.5,39.6l-18.2,17.4
				L304,783.1c-3.3-3.2-8.7-3.2-12,0c-3.3,3.2-3.3,8.3,0,11.5l19.6,18.8l-18.5,17.7L252,791.1c-3.3-3.2-8.7-3.3-12-0.1
				c-3.3,3.2-3.4,8.3-0.1,11.5l41.2,40L262.9,860l-20-19.1c-3.3-3.2-8.7-3.2-12,0c-3.3,3.2-3.3,8.3,0,11.5l20,19.1l-18.2,17.4
				l-37.6-35.4c-3.3-3.2-8.8-3.1-12,0.1c-3.3,3.2-3.2,8.4,0.1,11.5l37.5,35.3l-70.9,67.8l-82.9-79.3l292.6-279.7l82.9,79.3
				L414.6,714.9z"/>
		</g>
	</g>
</g>
</svg>
