<?xml version="1.0" encoding="utf-8"?>
<!-- Generator: Adobe Illustrator 27.0.1, SVG Export Plug-In . SVG Version: 6.00 Build 0)  -->
<svg version="1.1" id="Layer_1" xmlns="http://www.w3.org/2000/svg" xmlns:xlink="http://www.w3.org/1999/xlink" x="0px" y="0px"
	 viewBox="0 0 512 512" style="enable-background:new 0 0 512 512;" xml:space="preserve">
<style type="text/css">
	.st0{fill:#FFFFFF;}
</style>
<g>
	<g>
		<path class="st0" d="M175.8,417.3L95,336.4L379.7,51.3l80.8,80.9L175.8,417.3L175.8,417.3z M75.5,377.3l59.5,59.6l-82.7,23.3
			L75.5,377.3L75.5,377.3z M505.7,117.2L394.7,6c-8-8-22.2-8-30.2,0L49.7,321.3c-2.6,2.6-4.4,5.8-5.4,9.4L0.8,485.3
			c-2,7.4,0,15.5,5.4,20.9c4.1,4.1,12.2,7,20.9,5.4l154.4-43.5c3.6-1,6.7-2.9,9.4-5.4l314.8-315.2
			C514.1,139,514.1,125.5,505.7,117.2L505.7,117.2z"/>
	</g>
</g>
</svg>
