<?xml version="1.0" encoding="utf-8"?>
<!-- Generator: Adobe Illustrator 26.0.3, SVG Export Plug-In . SVG Version: 6.00 Build 0)  -->
<svg version="1.1" id="Layer_1" xmlns="http://www.w3.org/2000/svg" xmlns:xlink="http://www.w3.org/1999/xlink" x="0px" y="0px"
	 viewBox="0 0 512 512" style="enable-background:new 0 0 512 512;" xml:space="preserve">
<style type="text/css">
	.st0{fill:none;stroke:#FFFFFF;stroke-width:10;stroke-miterlimit:10;}
</style>
<path class="st0" d="M128,32c-53,0-96,43-96,96v256c0,53,43,96,96,96h256c53,0,96-43,96-96V128c0-53-43-96-96-96H128z M220.8,256
	l35.2-89.4l35.2,89.4H220.8z M341.4,383.3L307,296H205l-34.4,87.3c-4,10.3-15.7,15.3-25.9,11.3c-10.3-4-15.3-15.7-11.3-25.9
	L230,123.6c9.3-23.6,42.8-23.6,52.1,0l96.6,245.1c4,10.3-1,21.9-11.3,25.9C357.1,398.7,345.4,393.6,341.4,383.3z"/>
</svg>
