<?xml version="1.0" encoding="utf-8"?>
<!-- Generator: Adobe Illustrator 26.1.0, SVG Export Plug-In . SVG Version: 6.00 Build 0)  -->
<svg version="1.1" id="Layer_1" xmlns="http://www.w3.org/2000/svg" xmlns:xlink="http://www.w3.org/1999/xlink" x="0px" y="0px"
	 viewBox="0 0 512 512" style="enable-background:new 0 0 512 512;" xml:space="preserve">
<style type="text/css">
	.st0{fill-rule:evenodd;clip-rule:evenodd;fill:#FFFFFF;}
	.st1{fill:#FF6465;}
	.st2{opacity:0.1;enable-background:new    ;}
	.st3{fill:#FFFFFF;}
</style>
<path class="st0" d="M116.4,57.9c14.6,0,26.5,11.9,26.5,26.5v142.8h222.2V84.4c0-14.6,11.9-26.5,26.5-26.5
	c14.6,0,26.5,11.9,26.5,26.5V423c0,14.6-11.9,26.5-26.5,26.5c-14.6,0-26.5-11.9-26.5-26.5V280.1H142.9v142.8
	c0,14.6-11.9,26.5-26.5,26.5s-26.5-11.9-26.5-26.5V84.4C90,69.8,101.9,57.9,116.4,57.9z"/>
<path class="st1" d="M389.1,449.9c51.3,0,92.9-41.6,92.9-92.9s-41.6-92.9-92.9-92.9s-92.9,41.6-92.9,92.9S337.8,449.9,389.1,449.9z"
	/>
<path class="st2" d="M321.2,357c0-47.1,35-85.9,80.4-92c-4.1-0.5-8.2-0.8-12.5-0.8c-51.3,0-92.9,41.6-92.9,92.9s41.6,92.9,92.9,92.9
	c4.2,0,8.4-0.3,12.5-0.8C356.2,442.9,321.2,404.1,321.2,357z"/>
<path class="st3" d="M409.9,357l24.5-24.5c1.8-1.8,1.8-4.6,0-6.4L420,311.7c-1.8-1.8-4.6-1.8-6.4,0l-24.5,24.5l-24.5-24.5
	c-1.8-1.8-4.6-1.8-6.4,0l-14.4,14.4c-1.8,1.8-1.8,4.6,0,6.4l24.5,24.5l-24.5,24.5c-1.8,1.8-1.8,4.6,0,6.4l14.4,14.4
	c1.8,1.8,4.6,1.8,6.4,0l24.5-24.5l24.5,24.5c1.8,1.8,4.6,1.8,6.4,0l14.4-14.4c1.8-1.8,1.8-4.6,0-6.4L409.9,357z"/>
<path d="M438.8,329.3c0-2-0.8-4-2.3-5.4l-14.4-14.4c-1.5-1.5-3.4-2.3-5.4-2.3c-2,0-4,0.8-5.4,2.3l-22.2,22.3l-22.3-22.3
	c-1.5-1.5-3.4-2.3-5.4-2.3s-4,0.8-5.4,2.3l-14.4,14.4c-3,3-3,7.9,0,10.8l22.3,22.3l-22.3,22.3c-3,3-3,7.9,0,10.8l14.4,14.4
	c1.5,1.5,3.4,2.3,5.4,2.3c2,0,4-0.8,5.4-2.3l22.3-22.3l22.3,22.3c1.5,1.5,3.4,2.3,5.4,2.3c2,0,4-0.8,5.4-2.3l14.4-14.4
	c1.5-1.5,2.3-3.4,2.3-5.4c0-2-0.8-4-2.3-5.4L414.3,357l22.3-22.3C438,333.3,438.8,331.4,438.8,329.3z M432.2,330.4l-24.5,24.5
	c-1.2,1.2-1.2,3.2,0,4.4l24.5,24.5c0.4,0.4,0.4,0.8,0.4,1s0,0.6-0.4,1l-14.4,14.3c-0.4,0.4-0.8,0.4-1,0.4s-0.6,0-1-0.4l-24.5-24.5
	c-0.6-0.6-1.4-0.9-2.2-0.9s-1.6,0.3-2.2,0.9l-24.4,24.5c-0.4,0.4-0.8,0.4-1,0.4c-0.2,0-0.6,0-1-0.4L346,385.7c-0.5-0.5-0.5-1.5,0-2
	l24.5-24.5c1.2-1.2,1.2-3.2,0-4.4L346,330.4c-0.5-0.5-0.5-1.5,0-2l14.4-14.4c0.4-0.4,0.8-0.4,1-0.4c0.2,0,0.6,0,1,0.4l24.5,24.5
	c1.2,1.2,3.2,1.2,4.4,0l24.5-24.5c0.4-0.4,0.8-0.4,1-0.4c0.2,0,0.6,0,1,0.4l14.4,14.4c0.4,0.4,0.4,0.8,0.4,1S432.5,330,432.2,330.4z
	"/>
<path d="M452,288.6c-1.2,1.2-1.2,3.2,0,4.4c17.3,17,26.8,39.7,26.8,63.9c0,24-9.3,46.5-26.3,63.5s-39.5,26.3-63.5,26.3
	c-13.3,0-26.1-2.8-38-8.4c-1.5-0.7-3.4,0-4.1,1.5c-0.7,1.5,0,3.4,1.5,4.1c12.8,6,26.4,9,40.7,9c25.6,0,49.7-10,67.9-28.1
	c18.1-18.1,28.1-42.2,28.1-67.9c0-25.9-10.2-50.2-28.6-68.4C455.2,287.4,453.2,287.4,452,288.6z"/>
<path d="M336.7,437.5c0.5,0.3,1.1,0.5,1.7,0.5c1,0,2-0.5,2.6-1.4c1-1.5,0.5-3.4-0.9-4.3c-25.6-16.7-40.8-44.8-40.8-75.2
	c0-24,9.3-46.5,26.3-63.5c16.9-16.9,39.5-26.3,63.5-26.3c19.6,0,38.2,6.2,53.8,17.9c1.4,1,3.3,0.8,4.4-0.6s0.8-3.3-0.6-4.4
	C429.9,267.6,410,261,389.1,261c-25.6,0-49.7,10-67.9,28.1c-18.1,18.1-28.1,42.2-28.1,67.9C293.1,389.6,309.4,419.7,336.7,437.5z"/>
</svg>
