<?xml version="1.0" encoding="utf-8"?>
<!-- Generator: Adobe Illustrator 25.2.1, SVG Export Plug-In . SVG Version: 6.00 Build 0)  -->
<svg version="1.1" id="Layer_4" xmlns="http://www.w3.org/2000/svg" xmlns:xlink="http://www.w3.org/1999/xlink" x="0px" y="0px"
	 viewBox="0 0 512 512" style="enable-background:new 0 0 512 512;" xml:space="preserve">
<style type="text/css">
	.st0{fill:#FFFFFF;stroke:#000000;stroke-miterlimit:10;}
	.st1{font-family:'ArialMT';}
	.st2{font-size:195.4144px;}
</style>
<path class="st0" d="M429.1,328H130.8v-42.8c0-5.7-3-10.8-7.5-13.1c-1.6-0.8-3.3-1.2-5-1.2c-3.1,0-6.1,1.3-8.5,3.8l-58,61.8
	c-2.5,2.7-4,6.5-4,10.4s1.5,7.8,4,10.4l58,61.8c3.7,3.8,8.9,4.8,13.4,2.6c4.5-2.2,7.5-7.4,7.5-13.1v-42.8h298.3
	c9.2,0,16.5-8.6,16.5-19C445.6,336.5,438.3,328,429.1,328z"/>
<ellipse class="st0" cx="412.2" cy="347" rx="33.4" ry="38.3"/>
<text transform="matrix(0.9007 0 0 1 47.9229 243.792)" class="st0 st1 st2">A</text>
<text transform="matrix(0.9007 0 0 1 336.8926 243.792)" class="st0 st1 st2">H</text>
</svg>
