<?xml version="1.0" encoding="utf-8"?>
<!-- Generator: Adobe Illustrator 27.0.0, SVG Export Plug-In . SVG Version: 6.00 Build 0)  -->
<svg version="1.1" id="Layer_1" xmlns="http://www.w3.org/2000/svg" xmlns:xlink="http://www.w3.org/1999/xlink" x="0px" y="0px"
	 viewBox="0 0 16 16" style="enable-background:new 0 0 16 16;" xml:space="preserve">
<style type="text/css">
	.st0{fill-rule:evenodd;clip-rule:evenodd;fill:#FFFFFF;stroke:#FFFFFF;stroke-miterlimit:10;}
	
		.st1{fill-rule:evenodd;clip-rule:evenodd;fill:#FFFFFF;stroke:#FFFFFF;stroke-width:0.75;stroke-linecap:round;stroke-linejoin:round;stroke-miterlimit:10;}
</style>
<path class="st0" d="M4.7,5.2C4.8,5.1,5.2,5,5.4,4.6c0.2-0.2,0.2-0.4,0.2-0.5c0,0,0.1-0.3,0.1-0.5c0-1-0.8-1.8-1.8-1.8
	S2.2,2.7,2.2,3.6c0,0.2,0,0.4,0.1,0.5c0.1,0.3,0.2,0.5,0.3,0.5c0.3,0.4,0.8,0.5,0.9,0.6c-0.1,1.7-0.2,3.9,0,6.5
	c0.1,0.6,0.2,2.5,0.5,2.5c0.2,0,0.4-1.5,0.4-2.9C4.4,10,4.2,9.5,4.3,8c0-0.6,0.1-1.1,0.1-1.4C5,7.4,6.3,8.9,8.5,9.7
	c0.9,0.3,1.7,0.5,2.4,0.5c0.9-0.1,1.9-0.3,1.9-0.4c0-0.1-0.9,0-1.9-0.1C8.7,9.3,7.2,8,6.7,7.6C5.7,6.8,5.1,5.9,4.7,5.2z"/>
<polygon class="st1" points="10.7,7.8 10.7,12.2 14.5,10 "/>
<polygon class="st1" points="6.2,10.6 1.9,10.5 4,14.5 "/>
</svg>
