<?xml version="1.0" encoding="utf-8"?>
<!-- Generator: Adobe Illustrator 26.1.0, SVG Export Plug-In . SVG Version: 6.00 Build 0)  -->
<svg version="1.1" id="Layer_1" xmlns="http://www.w3.org/2000/svg" xmlns:xlink="http://www.w3.org/1999/xlink" x="0px" y="0px"
	 viewBox="0 0 512 512" style="enable-background:new 0 0 512 512;" xml:space="preserve">
<style type="text/css">
	.st0{fill:none;}
	.st1{fill:#FFFFFF;}
	.st2{fill-rule:evenodd;clip-rule:evenodd;fill:#699F4C;stroke:#000000;stroke-width:6;stroke-miterlimit:10;}
</style>
<line class="st0" x1="529.4" y1="207.4" x2="558.2" y2="208.2"/>
<rect id="_Transparent_Rectangle_" x="-7" y="-7" class="st0" width="519" height="519"/>
<g>
	<g>
		<path class="st1" d="M421.3,181.8c-15.5,0-28.8,9.4-34.5,22.8H357c-2.6-18.5-9.9-35.5-20.6-49.7l21.1-21.1
			c13.5,5.4,29.6,2.6,40.5-8.3c14.7-14.7,14.7-38.5,0-53.2s-38.5-14.7-53.2,0c-10.9,10.9-13.7,27-8.3,40.5l-21.1,21.1
			c-14.2-10.8-31.2-18.1-49.7-20.6V83.5c13.4-5.8,22.8-19.1,22.8-34.5c0-20.7-16.9-37.6-37.6-37.6S213.3,28.3,213.3,49
			c0,15.5,9.4,28.8,22.8,34.5v29.8c-18.5,2.6-35.5,9.9-49.7,20.6l-21.1-21.1c5.4-13.5,2.6-29.6-8.3-40.5l0,0
			c-14.7-14.7-38.5-14.7-53.2,0s-14.7,38.5,0,53.2c10.9,10.9,27,13.7,40.5,8.3l21.1,21.1c-10.8,14.2-18.1,31.2-20.6,49.7H115
			c-5.8-13.4-19.1-22.8-34.5-22.8c-20.7,0-37.6,16.9-37.6,37.6S59.8,257,80.5,257c15.5,0,28.8-9.4,34.5-22.8h29.8
			c2.6,18.5,9.9,35.5,20.6,49.7L144.3,305c-13.5-5.4-29.6-2.6-40.5,8.3c-14.7,14.7-14.7,38.5,0,53.2c28.8,28.8,76.5-2.8,61.5-40.5
			l21.1-21.1c14.2,10.8,31.2,18.1,49.7,20.6v29.8c-13.4,5.8-22.8,19.1-22.8,34.5c0,20.7,16.9,37.6,37.6,37.6s37.6-16.9,37.6-37.6
			c0-15.5-9.4-28.8-22.8-34.5v-29.8c18.5-2.6,35.5-9.9,49.7-20.6l21.1,21.1c-15,37.9,32.6,69.4,61.5,40.5
			c14.7-14.7,14.7-38.5,0-53.2c-10.9-10.9-27-13.7-40.5-8.3l-21.1-21.1c10.8-14.2,18.1-31.2,20.6-49.7h29.8
			c5.8,13.4,19.1,22.8,34.5,22.8c20.7,0,37.6-16.9,37.6-37.6S442,181.8,421.3,181.8z M250.9,252.4c-18.3,0-33.1-14.8-33.1-33.1
			c0-18.3,14.8-33,33.1-33c18.3,0,33.1,14.8,33.1,33.1C284,237.7,269.2,252.4,250.9,252.4z"/>
	</g>
</g>
<path class="st2" d="M463.3,173l0.5,0.7l18.1,25c13.6,19.4,9.5,46.4-9.4,61L166.1,488.5c-18,13.5-43.1,10-56.6-7.6l-0.5-0.7
	L20.3,360.2c-14.2-19.5-10.1-47.1,9.5-61.6l25.5-18.7c18-13.5,43.4-9.6,56.5,8.4l0.5,1.1l33,46.5c6.2,9.2,18.9,11.5,28.1,5l0.7-0.5
	l231.2-175.4c17.7-13.9,43.1-10.4,56.7,7.4L463.3,173z"/>
</svg>
