<?xml version="1.0" encoding="utf-8"?>
<!-- Generator: Adobe Illustrator 26.5.0, SVG Export Plug-In . SVG Version: 6.00 Build 0)  -->
<svg version="1.1" id="Layer_1" xmlns="http://www.w3.org/2000/svg" xmlns:xlink="http://www.w3.org/1999/xlink" x="0px" y="0px"
	 viewBox="0 0 512 512" style="enable-background:new 0 0 512 512;" xml:space="preserve">
<style type="text/css">
	.st0{fill:none;stroke:#FFFFFF;stroke-width:16;stroke-linecap:round;stroke-linejoin:round;stroke-miterlimit:10;}
	.st1{fill:#FFFFFF;}
</style>
<path class="st0" d="M484.4,424c-54.5-15.7-130.3-31.5-221.4-32.2C165.2,391,84.3,407.7,27.6,424c0-112,0-224,0-336
	c53.7,16.3,130.8,33.4,224.4,33.9c97.5,0.5,177.5-17.2,232.4-33.9C484.4,200,484.4,312,484.4,424z"/>
<g>
	<path class="st1" d="M115.5,330.8h77.9c7.8,0,13.7,1.6,17.7,4.8c4.1,3.2,6.1,7.5,6.1,13c0,4.9-1.6,9-4.8,12.4
		c-3.2,3.4-8.1,5.1-14.7,5.1H87.9c-7.5,0-13.3-2.1-17.5-6.2c-4.2-4.1-6.3-9-6.3-14.5c0-3.6,1.3-8.3,4-14.2
		c2.7-5.9,5.6-10.6,8.8-13.9c13.2-13.7,25.2-25.5,35.8-35.3c10.6-9.8,18.2-16.2,22.8-19.3c8.2-5.8,14.9-11.6,20.4-17.4
		c5.4-5.8,9.5-11.8,12.4-17.9c2.8-6.1,4.3-12.1,4.3-18c0-6.4-1.5-12.1-4.5-17.1c-3-5-7.2-8.9-12.4-11.7c-5.2-2.8-10.9-4.2-17.1-4.2
		c-13,0-23.3,5.7-30.7,17.2c-1,1.5-2.7,5.6-5,12.2c-2.3,6.7-5,11.8-7.9,15.4c-2.9,3.6-7.2,5.4-12.9,5.4c-5,0-9.1-1.6-12.4-4.9
		c-3.3-3.3-4.9-7.8-4.9-13.4c0-6.9,1.5-14,4.6-21.5c3.1-7.5,7.7-14.2,13.8-20.3c6.1-6.1,13.9-11,23.3-14.7c9.4-3.7,20.4-5.6,33-5.6
		c15.2,0,28.2,2.4,38.9,7.2c7,3.2,13.1,7.6,18.3,13.1c5.3,5.6,9.4,12,12.3,19.3c2.9,7.3,4.4,14.9,4.4,22.7c0,12.3-3.1,23.5-9.2,33.6
		c-6.1,10.1-12.4,18-18.7,23.7c-6.4,5.7-17,14.7-32,26.9c-15,12.2-25.2,21.7-30.8,28.5C120.4,323.8,118,327,115.5,330.8z"/>
	<path class="st1" d="M288.1,147.3h57.7c15,0,27.9,1.4,38.6,4.2c10.7,2.8,20.5,8,29.2,15.7c22.8,19.5,34.2,49.1,34.2,88.9
		c0,13.1-1.1,25.1-3.4,35.9c-2.3,10.8-5.8,20.6-10.6,29.3c-4.8,8.7-10.9,16.5-18.3,23.3c-5.9,5.3-12.3,9.5-19.2,12.7
		c-7,3.2-14.4,5.4-22.4,6.7c-8,1.3-17,1.9-27.1,1.9H289c-8.1,0-14.1-1.2-18.2-3.7c-4.1-2.4-6.7-5.9-8-10.3
		c-1.2-4.4-1.9-10.2-1.9-17.2V174.5c0-9.5,2.1-16.5,6.4-20.7C271.6,149.5,278.5,147.3,288.1,147.3z M305.2,182.4v148.4h33.6
		c7.4,0,13.1-0.2,17.3-0.6c4.2-0.4,8.5-1.4,13-3c4.5-1.6,8.4-3.8,11.6-6.7c14.8-12.5,22.2-34.1,22.2-64.7c0-21.6-3.3-37.7-9.8-48.5
		c-6.5-10.7-14.5-17.6-24.1-20.5c-9.5-2.9-21.1-4.4-34.6-4.4H305.2z"/>
</g>
</svg>
