<?xml version="1.0" encoding="utf-8"?>
<!-- Generator: Adobe Illustrator 27.0.0, SVG Export Plug-In . SVG Version: 6.00 Build 0)  -->
<svg version="1.1" id="Layer_1" xmlns="http://www.w3.org/2000/svg" xmlns:xlink="http://www.w3.org/1999/xlink" x="0px" y="0px"
	 viewBox="0 0 512 512" style="enable-background:new 0 0 512 512;" xml:space="preserve">
<style type="text/css">
	.st0{fill:#FFFFFF;}
</style>
<g>
	<path class="st0" d="M115.5,284.2h77.9c7.8,0,13.7,1.6,17.7,4.8c4.1,3.2,6.1,7.5,6.1,13c0,4.9-1.6,9-4.8,12.4s-8.1,5.1-14.7,5.1
		H87.9c-7.5,0-13.3-2.1-17.5-6.2s-6.3-9-6.3-14.5c0-3.6,1.3-8.3,4-14.2c2.7-5.9,5.6-10.6,8.8-13.9c13.2-13.7,25.2-25.5,35.8-35.3
		c10.6-9.8,18.2-16.2,22.8-19.3c8.2-5.8,14.9-11.6,20.4-17.4c5.4-5.8,9.5-11.8,12.4-17.9c2.8-6.1,4.3-12.1,4.3-18
		c0-6.4-1.5-12.1-4.5-17.1s-7.2-8.9-12.4-11.7s-10.9-4.2-17.1-4.2c-13,0-23.3,5.7-30.7,17.2c-1,1.5-2.7,5.6-5,12.2
		c-2.3,6.7-5,11.8-7.9,15.4c-2.9,3.6-7.2,5.4-12.9,5.4c-5,0-9.1-1.6-12.4-4.9c-3.3-3.3-4.9-7.8-4.9-13.4c0-6.9,1.5-14,4.6-21.5
		c3.1-7.5,7.7-14.2,13.8-20.3c6.1-6.1,13.9-11,23.3-14.7c9.4-3.7,20.4-5.6,33-5.6c15.2,0,28.2,2.4,38.9,7.2
		c7,3.2,13.1,7.6,18.3,13.1c5.3,5.6,9.4,12,12.3,19.3c2.9,7.3,4.4,14.9,4.4,22.7c0,12.3-3.1,23.5-9.2,33.6
		c-6.1,10.1-12.4,18-18.7,23.7c-6.4,5.7-17,14.7-32,26.9c-15,12.2-25.2,21.7-30.8,28.5C120.4,277.2,118,280.4,115.5,284.2z"/>
	<path class="st0" d="M288.1,100.7h57.7c15,0,27.9,1.4,38.6,4.2s20.5,8,29.2,15.7c22.8,19.5,34.2,49.1,34.2,88.9
		c0,13.1-1.1,25.1-3.4,35.9c-2.3,10.8-5.8,20.6-10.6,29.3c-4.8,8.7-10.9,16.5-18.3,23.3c-5.9,5.3-12.3,9.5-19.2,12.7
		c-7,3.2-14.4,5.4-22.4,6.7c-8,1.3-17,1.9-27.1,1.9H289c-8.1,0-14.1-1.2-18.2-3.7c-4.1-2.4-6.7-5.9-8-10.3
		c-1.2-4.4-1.9-10.2-1.9-17.2V127.9c0-9.5,2.1-16.5,6.4-20.7C271.6,102.9,278.5,100.7,288.1,100.7z M305.2,135.8v148.4h33.6
		c7.4,0,13.1-0.2,17.3-0.6c4.2-0.4,8.5-1.4,13-3s8.4-3.8,11.6-6.7c14.8-12.5,22.2-34.1,22.2-64.7c0-21.6-3.3-37.7-9.8-48.5
		c-6.5-10.7-14.5-17.6-24.1-20.5c-9.5-2.9-21.1-4.4-34.6-4.4L305.2,135.8L305.2,135.8z"/>
</g>
<g>
	<path class="st0" d="M490.4,37.6H21.6C13,37.6,6,44.6,6,53.3v312.5c0,8.6,7,15.6,15.6,15.6h218.8v62.5h-62.5
		c-8.6,0-15.6,7-15.6,15.6s7,15.6,15.6,15.6h156.2c8.6,0,15.6-7,15.6-15.6s-7-15.6-15.6-15.6h-62.5v-62.5h218.8
		c8.6,0,15.6-7,15.6-15.6V53.3C506,44.6,499,37.6,490.4,37.6z M474.8,350.1H37.2V68.9h437.5V350.1z"/>
</g>
</svg>
